<?xml version="1.0" encoding="UTF-8"?>
<svg version="1.1" xmlns="http://www.w3.org/2000/svg" width="364" height="341">
<path d="M0 0 C120.12 0 240.24 0 364 0 C364 112.53 364 225.06 364 341 C243.88 341 123.76 341 0 341 C0 228.47 0 115.94 0 0 Z " fill="#F3A782" transform="translate(0,0)"/>
<path d="M0 0 C120.12 0 240.24 0 364 0 C364 62.04 364 124.08 364 188 C363.01 188 362.02 188 361 188 C361.01047363 188.59425781 361.02094727 189.18851563 361.03173828 189.80078125 C361.07371131 192.53380989 361.0994558 195.26677037 361.125 198 C361.14175781 198.93457031 361.15851563 199.86914062 361.17578125 200.83203125 C361.18222656 201.75371094 361.18867188 202.67539063 361.1953125 203.625 C361.20578613 204.46289062 361.21625977 205.30078125 361.22705078 206.1640625 C361 209 361 209 359 217 C350.42 217 341.84 217 333 217 C332.34 214.36 331.68 211.72 331 209 C329.68 208.67 328.36 208.34 327 208 C327 206.68 327 205.36 327 204 C326.4225 203.79375 325.845 203.5875 325.25 203.375 C322.15522364 201.48374778 320.8081237 199.09964063 319 196 C319 195.34 319 194.68 319 194 C318.34 194 317.68 194 317 194 C316.6184375 193.02675781 316.236875 192.05351562 315.84375 191.05078125 C313.87004885 186.45431718 311.21598809 182.3746302 308.5 178.1875 C307.42993486 176.51499726 306.36095236 174.84180143 305.29296875 173.16796875 C304.74946777 172.3176709 304.2059668 171.46737305 303.64599609 170.59130859 C300.99534647 166.41836361 298.3974378 162.21387944 295.8125 158 C295.34328125 157.24098389 294.8740625 156.48196777 294.390625 155.69995117 C293.95878906 154.99459229 293.52695312 154.2892334 293.08203125 153.5625 C292.70280518 152.94503906 292.3235791 152.32757813 291.93286133 151.69140625 C291 150 291 150 290 147 C289.01 146.67 288.02 146.34 287 146 C287 144.68 287 143.36 287 142 C286.01 141.67 285.02 141.34 284 141 C283.29254503 139.38296007 282.59522978 137.76039508 281.9609375 136.11328125 C280.44575784 132.78111786 278.31546847 129.89850896 276.20703125 126.91796875 C275 125 275 125 275 123 C274.34 123 273.68 123 273 123 C272.38898438 121.48212891 272.38898438 121.48212891 271.765625 119.93359375 C270.11035785 116.08191443 268.01585777 112.5817617 265.75 109.0625 C264.85641163 107.65387364 263.96320768 106.24500336 263.0703125 104.8359375 C262.58208008 104.06862305 262.09384766 103.30130859 261.59082031 102.51074219 C258.57610427 97.75270968 255.60496278 92.96734361 252.625 88.1875 C248.89820151 82.21202453 245.16355243 76.24267615 241.37109375 70.30859375 C240.81147949 69.43114502 240.25186523 68.55369629 239.67529297 67.6496582 C238.6222135 66.00117277 237.56540782 64.35506013 236.50439453 62.71166992 C236.0401709 61.98439697 235.57594727 61.25712402 235.09765625 60.5078125 C234.69039307 59.87504395 234.28312988 59.24227539 233.86352539 58.59033203 C233 57 233 57 233 55 C232.01 54.67 231.02 54.34 230 54 C229.4121875 52.948125 229.4121875 52.948125 228.8125 51.875 C226.25904798 47.8246968 222.89152713 44.77859519 219 42 C218.29746094 41.85046875 217.59492188 41.7009375 216.87109375 41.546875 C216.25363281 41.36640625 215.63617188 41.1859375 215 41 C214.77356812 40.37434143 214.54713623 39.74868286 214.31384277 39.10406494 C212.67054608 36.47239315 211.0696068 36.04372056 208.1397171 35.25656509 C207.46905968 35.10196697 206.79840225 34.94736885 206.10742188 34.78808594 C205.39924065 34.61972103 204.69105942 34.45135612 203.96141815 34.27788925 C195.12653748 32.36076412 186.28162212 32.39489117 177.28125 32.390625 C175.4432228 32.37560248 173.60520889 32.358867 171.76721191 32.34051514 C166.98670751 32.29728571 162.20638499 32.27694247 157.42572021 32.26177979 C152.52459144 32.24204644 147.62365463 32.20009613 142.72265625 32.16015625 C133.14849737 32.08533675 123.57438244 32.03475519 114 32 C116.3085786 35.8244247 118.6198938 39.6471784 120.93359375 43.46850586 C121.71784888 44.76461603 122.50139658 46.06115457 123.28417969 47.3581543 C124.41929462 49.23864202 125.55702101 51.1175275 126.6953125 52.99609375 C127.06384338 53.60738129 127.43237427 54.21866882 127.81207275 54.84848022 C130.37677686 59.07174445 133.11755726 63.11439402 136.09716797 67.05493164 C137.33384768 69.71924404 136.83537134 71.23574884 136 74 C134.69995117 76.56103516 134.69995117 76.56103516 133.04296875 79.2890625 C132.43114746 80.30323242 131.81932617 81.31740234 131.18896484 82.36230469 C130.52848145 83.43899414 129.86799805 84.51568359 129.1875 85.625 C128.50896973 86.74293945 127.83043945 87.86087891 127.13134766 89.01269531 C122.16896411 97.17543129 117.09396081 105.26552729 111.96484375 113.32421875 C104.18736112 125.55562895 96.64134222 137.93410973 89.10449219 150.31469727 C85.21765545 156.68148327 81.24154334 162.99024205 77.23413086 169.28173828 C73.72412705 174.80414427 70.3699252 180.38345801 67 186 C44.89 186 22.78 186 0 186 C0 124.62 0 63.24 0 0 Z " fill="#F6C185" transform="translate(0,0)"/>
<path d="M0 0 C10.54544785 -0.09326827 21.09079526 -0.16405035 31.63657379 -0.20724869 C36.53504658 -0.2279967 41.43323422 -0.25607634 46.33154297 -0.30175781 C51.07134241 -0.34567718 55.81087009 -0.36923284 60.55085754 -0.37950897 C62.34630096 -0.38681862 64.14173193 -0.40108866 65.9370575 -0.42292023 C74.84785914 -0.52682658 83.39345041 -0.30868355 92.10742188 1.71191406 C92.7780793 1.85895657 93.44873672 2.00599907 94.1397171 2.15749741 C95.9979248 2.65045166 95.9979248 2.65045166 99 4 C100.28723145 6.60931396 100.28723145 6.60931396 101 9 C102.65471222 9.38835083 104.3245115 9.71429531 106 10 C108.640625 11.9609375 108.640625 11.9609375 111.25 14.375 C112.12140625 15.16648437 112.9928125 15.95796875 113.890625 16.7734375 C116 19 116 19 117 22 C118.32717805 23.33946033 119.66122252 24.67213313 121 26 C122.061169 27.55110657 123.06984896 29.13906283 124.03125 30.75390625 C124.5883667 31.68114502 125.1454834 32.60838379 125.71948242 33.5637207 C126.30705322 34.55331787 126.89462402 35.54291504 127.5 36.5625 C128.75517956 38.65184176 130.01171063 40.74037214 131.26953125 42.828125 C131.89682129 43.87033203 132.52411133 44.91253906 133.17041016 45.98632812 C135.78754135 50.29722583 138.48000021 54.55798544 141.1875 58.8125 C143.12708352 61.87368431 145.06436521 64.9363174 147 68 C147.51820313 68.82000488 148.03640625 69.64000977 148.5703125 70.48486328 C150.11791735 72.94302012 151.65415861 75.40792687 153.1875 77.875 C153.65760498 78.61854736 154.12770996 79.36209473 154.61206055 80.12817383 C156.83507157 83.7268002 158.56963769 86.69637689 159 91 C159.66 91 160.32 91 161 91 C162.61815634 93.22088246 164.10415176 95.42770138 165.5625 97.75 C165.97435547 98.38421875 166.38621094 99.0184375 166.81054688 99.671875 C169.88424943 104.50126035 169.88424943 104.50126035 170.49975586 107.15332031 C170.66483643 107.76272461 170.82991699 108.37212891 171 109 C171.66 109.33 172.32 109.66 173 110 C173.12375 110.598125 173.2475 111.19625 173.375 111.8125 C173.83401868 114.12125967 173.83401868 114.12125967 175.73046875 115.640625 C178.73081266 118.75974328 180.73899057 122.22676062 182.9375 125.9375 C183.90130357 127.54489499 184.86619561 129.1516377 185.83203125 130.7578125 C186.34072754 131.60504883 186.84942383 132.45228516 187.37353516 133.32519531 C189.07838666 136.12891088 190.82059934 138.90623603 192.57421875 141.6796875 C193.16533447 142.61820557 193.7564502 143.55672363 194.36547852 144.52368164 C195.52057979 146.35450194 196.68106092 148.18194124 197.84741211 150.00561523 C198.37471924 150.84552002 198.90202637 151.6854248 199.4453125 152.55078125 C199.91469238 153.28981689 200.38407227 154.02885254 200.86767578 154.7902832 C202.09903138 157.19325853 202.59280091 159.34152161 203 162 C203.66 162 204.32 162 205 162 C207.46220994 165.28294659 209.11341866 168.01038399 210 172 C210.66 172.33 211.32 172.66 212 173 C212.73075648 175.3140622 213.40138258 177.64828869 214 180 C214.66 180 215.32 180 216 180 C216.66 181.65 217.32 183.3 218 185 C207.92420348 185.02328608 197.84841347 185.04099735 187.77259541 185.05181217 C183.09277195 185.05700568 178.41296707 185.0640383 173.7331543 185.07543945 C169.20736194 185.08639495 164.68158731 185.09230336 160.1557827 185.09487724 C158.43884185 185.09670887 156.72190184 185.10028496 155.00496864 185.10573006 C126.43878656 185.19262887 126.43878656 185.19262887 119.75390625 180.23828125 C117.84305204 178.76724531 117.84305204 178.76724531 114.5625 177.8125 C104.52045027 172.70338698 98.70537684 161.34075234 93 152 C92.319375 150.90171875 91.63875 149.8034375 90.9375 148.671875 C90.2775 147.60453125 89.6175 146.5371875 88.9375 145.4375 C88.29675537 144.44782227 87.65601074 143.45814453 86.99584961 142.43847656 C85 139 85 139 83.88500977 135.61328125 C82.24581754 131.43229402 80.80368708 128.51519747 77 126 C68.36837561 123.25647909 59.02582817 123.47424625 50.04850769 123.54758072 C47.998221 123.56251296 45.94886154 123.55471562 43.89855957 123.54501343 C26.92359899 123.01683901 26.92359899 123.01683901 12.17077637 129.88575745 C7.43595315 135.28731571 5.08626448 141.83899602 3.12304688 148.67041016 C1.59741441 153.19357875 -0.81662977 156.79332163 -3.53808594 160.68432617 C-6.25940588 164.99490059 -6.28051302 168.9507657 -6 174 C-3.8614515 176.1385485 -2.86724686 176.42655063 0 177 C0 179.64 0 182.28 0 185 C-26.07 185 -52.14 185 -79 185 C-79 182.69 -79 180.38 -79 178 C-78.02160156 177.89945313 -77.04320312 177.79890625 -76.03515625 177.6953125 C-74.71061975 177.50743498 -73.38641593 177.31720174 -72.0625 177.125 C-70.77472656 176.96257812 -69.48695312 176.80015625 -68.16015625 176.6328125 C-58.2019469 173.83355509 -52.26326161 161.13082811 -47.375 152.875 C-46.3402747 151.16025264 -45.30552487 149.44551933 -44.269104 147.73179626 C-43.56313842 146.5633819 -42.85850894 145.39415922 -42.1552124 144.22413635 C-38.51183458 138.16493062 -34.76031885 132.17469788 -31 126.1875 C-26.66344938 119.26463324 -22.34235193 112.3339632 -18.0703125 105.37109375 C-11.59066812 94.82027658 -5.09221099 84.28045485 1.53149414 73.81933594 C2.50646797 72.27947702 3.47962907 70.7384688 4.45092773 69.19628906 C7.16565197 64.88634245 9.90704273 60.59579346 12.67578125 56.3203125 C13.88840694 54.4221216 15.1006547 52.52368921 16.3125 50.625 C16.89451172 49.73876953 17.47652344 48.85253906 18.07617188 47.93945312 C18.60404297 47.10607422 19.13191406 46.27269531 19.67578125 45.4140625 C20.14927002 44.6813916 20.62275879 43.9487207 21.1105957 43.19384766 C22.29374501 40.27543436 21.99364402 38.98010031 21 36 C19.84874992 33.8250675 18.61290731 31.69407938 17.32421875 29.59765625 C16.95778763 28.99747177 16.59135651 28.39728729 16.21382141 27.77891541 C15.04530464 25.86909439 13.86647202 23.96588027 12.6875 22.0625 C11.90624378 20.78751188 11.12563829 19.51212478 10.34570312 18.23632812 C6.16185456 11.40177028 6.16185456 11.40177028 1.74536133 4.71655273 C0 2 0 2 0 0 Z " fill="#040302" transform="translate(114,32)"/>
<path d="M0 0 C7.1465625 0.2165625 7.1465625 0.2165625 14.4375 0.4375 C15.9423999 0.48060303 17.4472998 0.52370605 18.99780273 0.56811523 C20.17286377 0.60622314 21.3479248 0.64433105 22.55859375 0.68359375 C23.76829834 0.72025146 24.97800293 0.75690918 26.22436523 0.79467773 C29 1 29 1 30 2 C30.10008391 4.11007088 30.13081127 6.22349533 30.1328125 8.3359375 C30.13410156 9.62757813 30.13539063 10.91921875 30.13671875 12.25 C30.13462402 12.92675781 30.1325293 13.60351562 30.13037109 14.30078125 C30.12504026 16.35945064 30.13030701 18.4179001 30.13671875 20.4765625 C30.13478516 22.41789062 30.13478516 22.41789062 30.1328125 24.3984375 C30.13168457 25.59130371 30.13055664 26.78416992 30.12939453 28.01318359 C30 31 30 31 29 34 C20.09 34 11.18 34 2 34 C2 53.47 2 72.94 2 93 C11.24 93 20.48 93 30 93 C30 86.07 30 79.14 30 72 C30.66 72.33 31.32 72.66 32 73 C32 79.6 32 86.2 32 93 C32.66 93.33 33.32 93.66 34 94 C-86.12 94 -206.24 94 -330 94 C-330 56.85714286 -330 56.85714286 -329 46 C-328.67 46 -328.34 46 -328 46 C-328 51.28 -328 56.56 -328 62 C-318.76 62 -309.52 62 -300 62 C-300 52.43 -300 42.86 -300 33 C-308.91 33 -317.82 33 -327 33 C-327 32.67 -327 32.34 -327 32 C-322.5625336 31.83243072 -318.12502168 31.66609843 -313.6875 31.5 C-312.42486328 31.45230469 -311.16222656 31.40460938 -309.86132812 31.35546875 C-308.65283203 31.31035156 -307.44433594 31.26523437 -306.19921875 31.21875 C-305.08377686 31.17685547 -303.96833496 31.13496094 -302.8190918 31.09179688 C-297.54975955 30.92021387 -292.27199511 31 -287 31 C-284.05495227 26.16170731 -281.84030886 21.33579468 -279.83203125 16.0390625 C-279 14 -279 14 -278 13 C-276.58429877 12.91348389 -275.164405 12.89295096 -273.74609375 12.90234375 C-272.46508789 12.90717773 -272.46508789 12.90717773 -271.15820312 12.91210938 C-270.26037109 12.92048828 -269.36253906 12.92886719 -268.4375 12.9375 C-267.53580078 12.94201172 -266.63410156 12.94652344 -265.70507812 12.95117188 C-263.46998686 12.96299775 -261.23502563 12.9794778 -259 13 C-258.52820313 14.14275391 -258.52820313 14.14275391 -258.046875 15.30859375 C-255.72888252 20.90109971 -253.37802239 26.47111955 -250.89453125 31.9921875 C-250.09096104 33.79583418 -249.32429533 35.61581553 -248.5625 37.4375 C-246.86528555 41.30714894 -244.95592302 45.02768606 -242.98828125 48.765625 C-242 51 -242 51 -242 54 C-246.29 54 -250.58 54 -255 54 C-255.99 52.02 -255.99 52.02 -257 50 C-259.64787088 49.29626983 -259.64787088 49.29626983 -262.625 49.25 C-264.39875 49.1675 -266.1725 49.085 -268 49 C-268 53.29 -268 57.58 -268 62 C-258.76 62 -249.52 62 -240 62 C-240 52.76 -240 43.52 -240 34 C-239.34 34 -238.68 34 -238 34 C-237.505 42.415 -237.505 42.415 -237 51 C-231.26523598 39.73900883 -225.92383457 28.36581825 -220.81274414 16.80908203 C-220.23650448 15.52643382 -219.62884634 14.25769268 -219 13 C-212.73 13 -206.46 13 -200 13 C-195.04464286 22.77678571 -195.04464286 22.77678571 -193.3125 27.0625 C-192.32758907 30.10044858 -192.32758907 30.10044858 -190 31 C-186.04 31 -182.08 31 -178 31 C-178 51.46 -178 71.92 -178 93 C-168.76 93 -159.52 93 -150 93 C-150.11969064 86.20055323 -150.24224796 79.40128856 -150.37231445 72.60205078 C-150.41570376 70.28762931 -150.45737584 67.973175 -150.49731445 65.65869141 C-150.55492032 62.33746427 -150.61864251 59.01640308 -150.68359375 55.6953125 C-150.70866249 54.13588425 -150.70866249 54.13588425 -150.73423767 52.54495239 C-150.75418289 51.58410736 -150.77412811 50.62326233 -150.79467773 49.63330078 C-150.81022202 48.78502716 -150.8257663 47.93675354 -150.84178162 47.06277466 C-150.87429958 44.93681695 -150.87429958 44.93681695 -152 43 C-154.35599235 42.53248212 -154.35599235 42.53248212 -157.0625 42.375 C-158.691875 42.25125 -160.32125 42.1275 -162 42 C-162 45.63 -162 49.26 -162 53 C-165.96 53 -169.92 53 -174 53 C-174 39.8 -174 26.6 -174 13 C-169.194375 12.938125 -164.38875 12.87625 -159.4375 12.8125 C-157.18377563 12.77153198 -157.18377563 12.77153198 -154.88452148 12.72973633 C-153.08349976 12.71849731 -153.08349976 12.71849731 -151.24609375 12.70703125 C-150.02591553 12.6913208 -148.8057373 12.67561035 -147.54858398 12.65942383 C-142.2179558 13.17103211 -138.33397462 14.59761643 -134.5625 18.5625 C-132.41045409 23.29700099 -132.72037135 26.82687 -133 32 C-128.71 32 -124.42 32 -120 32 C-121.59041452 24.9226554 -123.00479728 19.06168689 -127 13 C-122.69920851 12.0175857 -119.25350022 11.70301434 -115 13 C-111.81737023 16.340585 -109.95494054 20.52110235 -107.9375 24.62109375 C-106.4300169 28.11708712 -106.4300169 28.11708712 -103.87890625 28.71118164 C-103.25886719 28.8064917 -102.63882813 28.90180176 -102 29 C-101.72929687 28.29488281 -101.45859375 27.58976562 -101.1796875 26.86328125 C-99.0687247 21.739653 -96.97124501 16.95087965 -93 13 C-88.85026041 12.05711285 -85.17850038 12.32073639 -81 13 C-82.19529042 15.50850187 -83.37780795 17.50374394 -85.0625 19.75 C-87.60984763 23.5284279 -87.60984763 23.5284279 -88 31 C-82.06 30.67 -76.12 30.34 -70 30 C-69.566875 28.68 -69.13375 27.36 -68.6875 26 C-67.24628629 21.60772965 -65.62822411 17.34193095 -64 13 C-57.73 13 -51.46 13 -45 13 C-43.845 15.2275 -42.69 17.455 -41.5 19.75 C-41.13455078 20.44448242 -40.76910156 21.13896484 -40.39257812 21.85449219 C-38.66393834 25.25101458 -38 27.11208902 -38 31 C-25.79 31.33 -13.58 31.66 -1 32 C-0.67 21.44 -0.34 10.88 0 0 Z " fill="#E6977B" transform="translate(330,247)"/>
<path d="M0 0 C0.33 0 0.66 0 1 0 C2.00013174 4.14241416 2.11516542 8.01480304 2.09765625 12.26953125 C2.09515869 13.51581299 2.09266113 14.76209473 2.09008789 16.04614258 C2.08098389 17.61904053 2.07187988 19.19193848 2.0625 20.8125 C2.041875 25.824375 2.02125 30.83625 2 36 C12.56 36 23.12 36 34 36 C34 67.35 34 98.7 34 131 C33.01 131 32.02 131 31 131 C31.01047363 131.59425781 31.02094727 132.18851563 31.03173828 132.80078125 C31.07371131 135.53380989 31.0994558 138.26677037 31.125 141 C31.14175781 141.93457031 31.15851563 142.86914062 31.17578125 143.83203125 C31.18222656 144.75371094 31.18867188 145.67539063 31.1953125 146.625 C31.20578613 147.46289062 31.21625977 148.30078125 31.22705078 149.1640625 C31 152 31 152 29 160 C20.42 160 11.84 160 3 160 C2.34 157.36 1.68 154.72 1 152 C-0.32 151.67 -1.64 151.34 -3 151 C-3 149.68 -3 148.36 -3 147 C-3.5775 146.79375 -4.155 146.5875 -4.75 146.375 C-7.84477636 144.48374778 -9.1918763 142.09964063 -11 139 C-11 138.34 -11 137.68 -11 137 C-11.66 137 -12.32 137 -13 137 C-13.57234375 135.54013672 -13.57234375 135.54013672 -14.15625 134.05078125 C-16.12995115 129.45431718 -18.78401191 125.3746302 -21.5 121.1875 C-22.57006514 119.51499726 -23.63904764 117.84180143 -24.70703125 116.16796875 C-25.52228271 114.89252197 -25.52228271 114.89252197 -26.35400391 113.59130859 C-29.00465353 109.41836361 -31.6025622 105.21387944 -34.1875 101 C-34.65671875 100.24098389 -35.1259375 99.48196777 -35.609375 98.69995117 C-36.04121094 97.99459229 -36.47304688 97.2892334 -36.91796875 96.5625 C-37.29719482 95.94503906 -37.6764209 95.32757813 -38.06713867 94.69140625 C-39 93 -39 93 -40 90 C-41.485 89.505 -41.485 89.505 -43 89 C-43 87.68 -43 86.36 -43 85 C-43.99 84.67 -44.98 84.34 -46 84 C-46.70745497 82.38296007 -47.40477022 80.76039508 -48.0390625 79.11328125 C-49.55424216 75.78111786 -51.68453153 72.89850896 -53.79296875 69.91796875 C-55 68 -55 68 -55 66 C-55.66 66 -56.32 66 -57 66 C-56.505 65.01 -56.505 65.01 -56 64 C-55.34 64.33 -54.68 64.66 -54 65 C-54 65.66 -54 66.32 -54 67 C-46.08 67 -38.16 67 -30 67 C-30 57.76 -30 48.52 -30 39 C-39.24 39 -48.48 39 -58 39 C-58 38.01 -58 37.02 -58 36 C-48.76 36 -39.52 36 -30 36 C-30 26.76 -30 17.52 -30 8 C-39.24 8 -48.48 8 -58 8 C-58 7.01 -58 6.02 -58 5 C-38.63135892 4.86041006 -19.35233433 5.19320571 0 6 C0 4.02 0 2.04 0 0 Z " fill="#F3B583" transform="translate(330,57)"/>
<path d="M0 0 C0.66 0 1.32 0 2 0 C3.32708554 1.90693823 4.56079518 3.879164 5.75 5.875 C6.10126953 6.46273193 6.45253906 7.05046387 6.81445312 7.65600586 C7.53302909 8.85857729 8.2491702 10.06260691 8.96289062 11.26806641 C9.90558481 12.84233019 10.8807716 14.39702219 11.859375 15.94921875 C12.67148438 17.24279297 12.67148438 17.24279297 13.5 18.5625 C13.9846875 19.32691406 14.469375 20.09132813 14.96875 20.87890625 C16 23 16 23 16 27 C15.34 27 14.68 27 14 27 C13.62488281 28.03253906 13.62488281 28.03253906 13.2421875 29.0859375 C11.80862856 32.44894054 10.02381022 35.51207287 8.125 38.625 C7.74077881 39.26163574 7.35655762 39.89827148 6.96069336 40.55419922 C4.62105153 44.40854113 2.22951115 48.22746973 -0.19140625 52.03125 C-0.72975098 52.8773584 -1.2680957 53.7234668 -1.82275391 54.59521484 C-2.88190364 56.2545601 -3.94524375 57.9112397 -5.01318359 59.56494141 C-5.50254395 60.32983887 -5.9919043 61.09473633 -6.49609375 61.8828125 C-6.93107178 62.55715332 -7.3660498 63.23149414 -7.81420898 63.92626953 C-9.2976613 66.40948167 -9.2976613 66.40948167 -11 71 C-21.56 71 -32.12 71 -43 71 C-38.49734043 60.86901596 -38.49734043 60.86901596 -36.40625 57.4140625 C-35.93977051 56.63885254 -35.47329102 55.86364258 -34.99267578 55.06494141 C-34.50009277 54.25976074 -34.00750977 53.45458008 -33.5 52.625 C-32.97519043 51.7592334 -32.45038086 50.8934668 -31.90966797 50.00146484 C-26.91860818 41.79920693 -21.8041973 33.67609868 -16.64306641 25.58007812 C-14.81356573 22.70724557 -12.99054695 19.83035391 -11.16796875 16.953125 C-9.88295496 14.92699298 -8.59780113 12.90094976 -7.3125 10.875 C-6.69971191 9.90771973 -6.08692383 8.94043945 -5.45556641 7.94384766 C-4.8888623 7.0522998 -4.3221582 6.16075195 -3.73828125 5.2421875 C-3.23337158 4.4466748 -2.72846191 3.65116211 -2.20825195 2.83154297 C-1 1 -1 1 0 0 Z " fill="#F3B883" transform="translate(141,79)"/>
<path d="M0 0 C-2.45643398 5.1415862 -5.5605008 9.90631548 -8.54736328 14.75097656 C-9.60345516 16.46503235 -10.65528871 18.18170953 -11.70703125 19.8984375 C-29.67175856 49.08690626 -29.67175856 49.08690626 -42.4375 52.6875 C-48.19610725 53.38976918 -52.23956869 53.64032983 -57 50 C-58.40405254 47.19189492 -58.22272379 45.11693819 -58 42 C-56.90527344 39.5090332 -56.90527344 39.5090332 -55.359375 37.05078125 C-54.79105957 36.1285376 -54.22274414 35.20629395 -53.63720703 34.25610352 C-52.35601455 32.25774159 -51.0703755 30.26222485 -49.78076172 28.26928711 C-46.62749763 23.36545511 -43.7400166 18.66888906 -41.5234375 13.265625 C-33.44700336 -5.0436378 -17.36911454 -1.90640388 0 0 Z " fill="#D19870" transform="translate(124,157)"/>
<path d="M0 0 C10 0 10 0 14 1 C13.57534294 8.36072234 11.01651083 14.32137824 8 21 C11.63 21 15.26 21 19 21 C19 20.01 19 19.02 19 18 C21 17 21 17 28 17 C28 31.52 28 46.04 28 61 C18.76 61 9.52 61 0 61 C0 40.87 0 20.74 0 0 Z " fill="#F29F82" transform="translate(242,279)"/>
<path d="M0 0 C4.805625 -0.061875 9.61125 -0.12375 14.5625 -0.1875 C16.81622437 -0.22846802 16.81622437 -0.22846802 19.11547852 -0.27026367 C20.91650024 -0.28150269 20.91650024 -0.28150269 22.75390625 -0.29296875 C23.97408447 -0.3086792 25.1942627 -0.32438965 26.45141602 -0.34057617 C31.7820442 0.17103211 35.66602538 1.59761643 39.4375 5.5625 C41.53790578 10.18339271 42.0702967 14.01041538 41 19 C39.58623705 21.32573961 38.07535031 23.2280847 36.21484375 25.2109375 C34.78410137 26.91727676 34.78410137 26.91727676 35.15625 29 C36.06352945 31.15058832 37.13635684 32.78035899 38.5625 34.625 C41 37.78753541 41 37.78753541 41 40 C36.85042725 40.61323735 33.12228334 40.8785194 29 40 C26.80425387 37.59880394 25.40533155 35.11586246 23.80078125 32.29296875 C22.17359293 29.78887794 22.17359293 29.78887794 19.35546875 29.11328125 C16.27156195 28.79754104 16.27156195 28.79754104 12 29 C12 32.63 12 36.26 12 40 C8.04 40 4.08 40 0 40 C0 26.8 0 13.6 0 0 Z " fill="#0B0706" transform="translate(156,260)"/>
<path d="M0 0 C3.3 0 6.6 0 10 0 C10 19.8 10 39.6 10 60 C0.76 60 -8.48 60 -18 60 C-18 45.48 -18 30.96 -18 16 C-7 16 -7 16 -5 17 C-5 17.99 -5 18.98 -5 20 C-1.04 20 2.92 20 7 20 C6.4946875 18.89140625 5.989375 17.7828125 5.46875 16.640625 C4.8121109 15.17725787 4.15588232 13.71370648 3.5 12.25 C3.16613281 11.52039063 2.83226562 10.79078125 2.48828125 10.0390625 C2.17246094 9.33007812 1.85664063 8.62109375 1.53125 7.890625 C1.09135742 6.91657715 1.09135742 6.91657715 0.64257812 5.92285156 C0 4 0 4 0 0 Z " fill="#F49F83" transform="translate(140,280)"/>
<path d="M0 0 C6.27 0 12.54 0 19 0 C21.59728632 4.97813212 24.01205224 9.80439428 25.8125 15.125 C27.80482471 20.89530145 30.52074636 26.21514162 33.35864258 31.60595703 C36 36.69371008 36 36.69371008 36 40 C32.04 40 28.08 40 24 40 C23.34 38.35 22.68 36.7 22 35 C13.75 35 5.5 35 -3 35 C-3.99 37.475 -3.99 37.475 -5 40 C-8.96 40 -12.92 40 -17 40 C-16.07344086 35.3672043 -14.61914244 31.5967957 -12.65625 27.36328125 C-12.32709595 26.64262985 -11.99794189 25.92197845 -11.65881348 25.17948914 C-10.61081924 22.88818955 -9.55548894 20.6003553 -8.5 18.3125 C-7.789887 16.76258852 -7.08024644 15.21246048 -6.37109375 13.66210938 C-1.35606694 2.71213389 -1.35606694 2.71213389 0 0 Z " fill="#0C0806" transform="translate(111,260)"/>
<path d="M0 0 C6.27 0 12.54 0 19 0 C19.7425 1.794375 20.485 3.58875 21.25 5.4375 C23.14224727 9.98103157 25.08324301 14.49563246 27.1015625 18.984375 C27.92556732 20.8330119 28.71458545 22.69714043 29.5 24.5625 C30.93093255 27.84172043 32.52258738 30.96475807 34.23046875 34.10546875 C35 36 35 36 35 40 C31.37 40 27.74 40 24 40 C23.34 38.35 22.68 36.7 22 35 C9.13 34.505 9.13 34.505 -4 34 C-4.33 35.98 -4.66 37.96 -5 40 C-8.96 40 -12.92 40 -17 40 C-16.45940391 33.90044406 -13.87009496 28.84523118 -11.3125 23.375 C-10.86277832 22.39966309 -10.41305664 21.42432617 -9.94970703 20.41943359 C-6.76374673 13.54302161 -3.46211852 6.74202028 0 0 Z " fill="#0D0807" transform="translate(52,260)"/>
<path d="M0 0 C6.27 0 12.54 0 19 0 C26.09821429 13.92857143 26.09821429 13.92857143 27.625 18.25 C29.0797278 22.21743946 30.87378603 25.85941916 32.81640625 29.60546875 C36 36.04620462 36 36.04620462 36 40 C31.71 40 27.42 40 23 40 C23 38.02 23 36.04 23 34 C14.42 34.33 5.84 34.66 -3 35 C-3.99 37.475 -3.99 37.475 -5 40 C-8.63 40 -12.26 40 -16 40 C-14.26067782 31.30338911 -10.35646199 23.53622528 -6.58325195 15.56274414 C-4.17581096 10.45060688 -2.02904208 5.2755094 0 0 Z " fill="#0B0705" transform="translate(266,260)"/>
<path d="M0 0 C5.61 0 11.22 0 17 0 C17 1.32 17 2.64 17 4 C22.445 4.495 22.445 4.495 28 5 C28 17.87 28 30.74 28 44 C18.76 44 9.52 44 0 44 C0 29.48 0 14.96 0 0 Z " fill="#F5A083" transform="translate(272,296)"/>
<path d="M0 0 C0.99 0 1.98 0 3 0 C4.39453125 1.87109375 4.39453125 1.87109375 5.8125 4.4375 C8.28792296 8.81136763 10.96401572 12.91409365 13.8984375 16.9921875 C15 19 15 19 15 23 C15.66 23 16.32 23 17 23 C18.47686988 25.07888712 19.81395738 27.13283374 21.125 29.3125 C21.49753906 29.90740234 21.87007812 30.50230469 22.25390625 31.11523438 C25 35.61661516 25 35.61661516 25 39 C9.49 39 -6.02 39 -22 39 C-21.13544213 34.67721063 -20.57218725 32.89785381 -18.33984375 29.375 C-17.7969873 28.5089917 -17.25413086 27.6429834 -16.69482422 26.75073242 C-16.11490723 25.84299072 -15.53499023 24.93524902 -14.9375 24 C-13.75082448 22.12139536 -12.56462608 20.24248924 -11.37890625 18.36328125 C-10.80027832 17.4501416 -10.22165039 16.53700195 -9.62548828 15.59619141 C-8.20393485 13.32571992 -6.82140126 11.04013206 -5.46484375 8.73046875 C-5.10463135 8.12138672 -4.74441895 7.51230469 -4.37329102 6.88476562 C-3.43829375 5.2951102 -2.51180124 3.70046109 -1.5859375 2.10546875 C-1.06257813 1.41066406 -0.53921875 0.71585937 0 0 Z " fill="#F5B784" transform="translate(160,111)"/>
<path d="M0 0 C9.24 0 18.48 0 28 0 C28 9.57 28 19.14 28 29 C18.76 29 9.52 29 0 29 C0 19.43 0 9.86 0 0 Z " fill="#F59F83" transform="translate(2,311)"/>
<path d="M0 0 C9.24 0 18.48 0 28 0 C28 9.57 28 19.14 28 29 C18.76 29 9.52 29 0 29 C0 19.43 0 9.86 0 0 Z " fill="#F6AC84" transform="translate(212,219)"/>
<path d="M0 0 C9.24 0 18.48 0 28 0 C28 9.57 28 19.14 28 29 C18.76 29 9.52 29 0 29 C0 19.43 0 9.86 0 0 Z " fill="#F6AC84" transform="translate(182,219)"/>
<path d="M0 0 C9.24 0 18.48 0 28 0 C28 9.57 28 19.14 28 29 C18.76 29 9.52 29 0 29 C0 19.43 0 9.86 0 0 Z " fill="#F7B085" transform="translate(152,188)"/>
<path d="M0 0 C1.12591553 0.00523682 2.25183105 0.01047363 3.41186523 0.01586914 C4.50571533 0.0183667 5.59956543 0.02086426 6.7265625 0.0234375 C8.82729126 0.03709351 8.82729126 0.03709351 10.97045898 0.05102539 C17.62202148 0.08196289 17.62202148 0.08196289 24.40795898 0.11352539 C24.40795898 9.68352539 24.40795898 19.25352539 24.40795898 29.11352539 C15.16795898 29.11352539 5.92795898 29.11352539 -3.59204102 29.11352539 C-3.61266602 24.51415039 -3.63329102 19.91477539 -3.65454102 15.17602539 C-3.66364502 13.72333252 -3.67274902 12.27063965 -3.68212891 10.77392578 C-3.68462646 9.63947021 -3.68712402 8.50501465 -3.68969727 7.33618164 C-3.69493408 6.16837158 -3.7001709 5.00056152 -3.70556641 3.79736328 C-3.55519047 0.24234674 -3.54549465 0.15528445 0 0 Z " fill="#F59F83" transform="translate(95.592041015625,310.886474609375)"/>
<path d="M0 0 C1.12591553 0.00523682 2.25183105 0.01047363 3.41186523 0.01586914 C4.50571533 0.0183667 5.59956543 0.02086426 6.7265625 0.0234375 C8.82729126 0.03709351 8.82729126 0.03709351 10.97045898 0.05102539 C17.62202148 0.08196289 17.62202148 0.08196289 24.40795898 0.11352539 C24.40795898 9.68352539 24.40795898 19.25352539 24.40795898 29.11352539 C15.16795898 29.11352539 5.92795898 29.11352539 -3.59204102 29.11352539 C-3.61266602 24.51415039 -3.63329102 19.91477539 -3.65454102 15.17602539 C-3.66364502 13.72333252 -3.67274902 12.27063965 -3.68212891 10.77392578 C-3.68462646 9.63947021 -3.68712402 8.50501465 -3.68969727 7.33618164 C-3.69493408 6.16837158 -3.7001709 5.00056152 -3.70556641 3.79736328 C-3.55519047 0.24234674 -3.54549465 0.15528445 0 0 Z " fill="#F59F83" transform="translate(35.592041015625,310.886474609375)"/>
<path d="M0 0 C6.6515625 -0.0309375 6.6515625 -0.0309375 13.4375 -0.0625 C14.83798584 -0.071604 16.23847168 -0.08070801 17.68139648 -0.09008789 C19.32217163 -0.09383423 19.32217163 -0.09383423 20.99609375 -0.09765625 C22.12200928 -0.10289307 23.2479248 -0.10812988 24.40795898 -0.11352539 C27 0 27 0 28 1 C28.08767112 3.07262076 28.10695873 5.14820294 28.09765625 7.22265625 C28.09515869 8.35711182 28.09266113 9.49156738 28.09008789 10.66040039 C28.08098389 12.11309326 28.07187988 13.56578613 28.0625 15.0625 C28.041875 19.661875 28.02125 24.26125 28 29 C18.76 29 9.52 29 0 29 C0 19.43 0 9.86 0 0 Z " fill="#F7B085" transform="translate(182,188)"/>
<path d="M0 0 C1.12591553 0.00523682 2.25183105 0.01047363 3.41186523 0.01586914 C4.50571533 0.0183667 5.59956543 0.02086426 6.7265625 0.0234375 C8.82729126 0.03709351 8.82729126 0.03709351 10.97045898 0.05102539 C17.62202148 0.08196289 17.62202148 0.08196289 24.40795898 0.11352539 C24.40795898 9.68352539 24.40795898 19.25352539 24.40795898 29.11352539 C19.97358398 29.13415039 15.53920898 29.15477539 10.97045898 29.17602539 C9.56997314 29.18512939 8.1694873 29.1942334 6.7265625 29.20361328 C5.6327124 29.20611084 4.5388623 29.2086084 3.41186523 29.21118164 C2.28594971 29.21641846 1.16003418 29.22165527 0 29.22705078 C-2.59204102 29.11352539 -2.59204102 29.11352539 -3.59204102 28.11352539 C-3.69187159 26.12595511 -3.72284855 24.1348502 -3.72485352 22.14477539 C-3.72614258 20.9343457 -3.72743164 19.72391602 -3.72875977 18.47680664 C-3.72489258 17.20192383 -3.72102539 15.92704102 -3.71704102 14.61352539 C-3.7209082 13.33864258 -3.72477539 12.06375977 -3.72875977 10.75024414 C-3.7274707 9.53981445 -3.72618164 8.32938477 -3.72485352 7.08227539 C-3.72372559 5.96272461 -3.72259766 4.84317383 -3.72143555 3.68969727 C-3.5467883 0.21256949 -3.48066421 0.15244503 0 0 Z " fill="#F59F83" transform="translate(65.592041015625,310.886474609375)"/>
<path d="M0 0 C1.12591553 0.00523682 2.25183105 0.01047363 3.41186523 0.01586914 C4.50571533 0.0183667 5.59956543 0.02086426 6.7265625 0.0234375 C8.82729126 0.03709351 8.82729126 0.03709351 10.97045898 0.05102539 C17.62202148 0.08196289 17.62202148 0.08196289 24.40795898 0.11352539 C24.40795898 9.68352539 24.40795898 19.25352539 24.40795898 29.11352539 C19.97358398 29.13415039 15.53920898 29.15477539 10.97045898 29.17602539 C9.56997314 29.18512939 8.1694873 29.1942334 6.7265625 29.20361328 C5.6327124 29.20611084 4.5388623 29.2086084 3.41186523 29.21118164 C2.28594971 29.21641846 1.16003418 29.22165527 0 29.22705078 C-2.59204102 29.11352539 -2.59204102 29.11352539 -3.59204102 28.11352539 C-3.69187159 26.12595511 -3.72284855 24.1348502 -3.72485352 22.14477539 C-3.72614258 20.9343457 -3.72743164 19.72391602 -3.72875977 18.47680664 C-3.72489258 17.20192383 -3.72102539 15.92704102 -3.71704102 14.61352539 C-3.7209082 13.33864258 -3.72477539 12.06375977 -3.72875977 10.75024414 C-3.7274707 9.53981445 -3.72618164 8.32938477 -3.72485352 7.08227539 C-3.72372559 5.96272461 -3.72259766 4.84317383 -3.72143555 3.68969727 C-3.5467883 0.21256949 -3.48066421 0.15244503 0 0 Z " fill="#F9CA87" transform="translate(65.592041015625,2.886474609375)"/>
<path d="M0 0 C0.66 0 1.32 0 2 0 C2 9.9 2 19.8 2 30 C11.24 30 20.48 30 30 30 C30 20.1 30 10.2 30 0 C30.66 0 31.32 0 32 0 C32 9.9 32 19.8 32 30 C35.28582031 29.98839844 38.57164062 29.97679688 41.95703125 29.96484375 C45.13419498 29.95704831 48.31135765 29.95097431 51.48852539 29.94506836 C53.69914221 29.940035 55.90975569 29.93320783 58.12036133 29.92456055 C61.295093 29.91245141 64.46978072 29.90676175 67.64453125 29.90234375 C69.13059624 29.89460182 69.13059624 29.89460182 70.64668274 29.88670349 C71.56741074 29.88662796 72.48813873 29.88655243 73.43676758 29.88647461 C74.65255241 29.88314369 74.65255241 29.88314369 75.89289856 29.87974548 C78 30 78 30 81 31 C83.94717173 31.15434158 86.87498865 31.2575603 89.82421875 31.31640625 C90.68561966 31.33718735 91.54702057 31.35796844 92.43452454 31.37937927 C95.18543544 31.44474909 97.93644156 31.50370132 100.6875 31.5625 C102.55274421 31.60569717 104.4179788 31.64931185 106.28320312 31.69335938 C110.85537258 31.80120316 115.42761462 31.90036991 120 32 C120 42.23 120 52.46 120 63 C114.7972973 59.87837838 114.7972973 59.87837838 113 55 C111.515 54.505 111.515 54.505 110 54 C109.4121875 52.948125 109.4121875 52.948125 108.8125 51.875 C106.25904798 47.8246968 102.89152713 44.77859519 99 42 C98.29746094 41.85046875 97.59492188 41.7009375 96.87109375 41.546875 C96.25363281 41.36640625 95.63617188 41.1859375 95 41 C94.77356812 40.37434143 94.54713623 39.74868286 94.31384277 39.10406494 C92.67054608 36.47239315 91.0696068 36.04372056 88.1397171 35.25656509 C87.46905968 35.10196697 86.79840225 34.94736885 86.10742188 34.78808594 C85.39924065 34.61972103 84.69105942 34.45135612 83.96141815 34.27788925 C75.12653748 32.36076412 66.28162212 32.39489117 57.28125 32.390625 C55.4432228 32.37560248 53.60520889 32.358867 51.76721191 32.34051514 C46.98670751 32.29728571 42.20638499 32.27694247 37.42572021 32.26177979 C32.52459144 32.24204644 27.62365463 32.20009613 22.72265625 32.16015625 C13.14849737 32.08533675 3.57438244 32.03475519 -6 32 C-6.33 32.66 -6.66 33.32 -7 34 C-7 32.68 -7 31.36 -7 30 C-4.69 30 -2.38 30 0 30 C0 20.1 0 10.2 0 0 Z " fill="#EEBE81" transform="translate(120,0)"/>
<path d="M0 0 C9.24 0 18.48 0 28 0 C28 9.24 28 18.48 28 28 C18.76 28 9.52 28 0 28 C0 18.76 0 9.52 0 0 Z " fill="#F59F83" transform="translate(302,312)"/>
<path d="M0 0 C9.24 0 18.48 0 28 0 C28 9.24 28 18.48 28 28 C18.76 28 9.52 28 0 28 C0 18.76 0 9.52 0 0 Z " fill="#F59F83" transform="translate(212,312)"/>
<path d="M0 0 C9.24 0 18.48 0 28 0 C28 9.24 28 18.48 28 28 C18.76 28 9.52 28 0 28 C0 18.76 0 9.52 0 0 Z " fill="#F59F83" transform="translate(182,312)"/>
<path d="M0 0 C9.24 0 18.48 0 28 0 C28 9.24 28 18.48 28 28 C18.76 28 9.52 28 0 28 C0 18.76 0 9.52 0 0 Z " fill="#F8BD86" transform="translate(332,96)"/>
<path d="M0 0 C9.24 0 18.48 0 28 0 C28.0309375 6.6515625 28.0309375 6.6515625 28.0625 13.4375 C28.071604 14.83798584 28.08070801 16.23847168 28.09008789 17.68139648 C28.09258545 18.77524658 28.09508301 19.86909668 28.09765625 20.99609375 C28.10551147 22.68496704 28.10551147 22.68496704 28.11352539 24.40795898 C28 27 28 27 27 28 C25.00035018 28.08758003 22.9976389 28.10696576 20.99609375 28.09765625 C19.90224365 28.09515869 18.80839355 28.09266113 17.68139648 28.09008789 C16.28091064 28.08098389 14.8804248 28.07187988 13.4375 28.0625 C6.7859375 28.0315625 6.7859375 28.0315625 0 28 C0 18.76 0 9.52 0 0 Z " fill="#F5A383" transform="translate(302,281)"/>
<path d="M0 0 C9.24 0 18.48 0 28 0 C28.0309375 6.6515625 28.0309375 6.6515625 28.0625 13.4375 C28.071604 14.83798584 28.08070801 16.23847168 28.09008789 17.68139648 C28.09258545 18.77524658 28.09508301 19.86909668 28.09765625 20.99609375 C28.10551147 22.68496704 28.10551147 22.68496704 28.11352539 24.40795898 C28 27 28 27 27 28 C25.00035018 28.08758003 22.9976389 28.10696576 20.99609375 28.09765625 C19.90224365 28.09515869 18.80839355 28.09266113 17.68139648 28.09008789 C16.28091064 28.08098389 14.8804248 28.07187988 13.4375 28.0625 C6.7859375 28.0315625 6.7859375 28.0315625 0 28 C0 18.76 0 9.52 0 0 Z " fill="#F6A884" transform="translate(302,250)"/>
<path d="M0 0 C8.91 0 17.82 0 27 0 C27 9.57 27 19.14 27 29 C18.09 29 9.18 29 0 29 C0 19.43 0 9.86 0 0 Z " fill="#F6A784" transform="translate(3,250)"/>
<path d="M0 0 C8.91 0 17.82 0 27 0 C27 9.57 27 19.14 27 29 C18.09 29 9.18 29 0 29 C0 19.43 0 9.86 0 0 Z " fill="#F7B985" transform="translate(3,126)"/>
<path d="M0 0 C9.24 0 18.48 0 28 0 C28 9.24 28 18.48 28 28 C23.565625 28.020625 19.13125 28.04125 14.5625 28.0625 C13.16201416 28.071604 11.76152832 28.08070801 10.31860352 28.09008789 C9.22475342 28.09258545 8.13090332 28.09508301 7.00390625 28.09765625 C5.87799072 28.10289307 4.7520752 28.10812988 3.59204102 28.11352539 C1 28 1 28 0 27 C-0.08758003 25.00035018 -0.10696576 22.9976389 -0.09765625 20.99609375 C-0.09515869 19.90224365 -0.09266113 18.80839355 -0.09008789 17.68139648 C-0.08098389 16.28091064 -0.07187988 14.8804248 -0.0625 13.4375 C-0.041875 9.003125 -0.02125 4.56875 0 0 Z " fill="#F9CA87" transform="translate(2,4)"/>
<path d="M0 0 C9.24 0 18.48 0 28 0 C28 8.58 28 17.16 28 26 C25.69 26.33 23.38 26.66 21 27 C20.67 27.33 20.34 27.66 20 28 C18.59651265 28.09860131 17.18819523 28.13078937 15.78125 28.1328125 C14.50701172 28.13474609 14.50701172 28.13474609 13.20703125 28.13671875 C11.86705078 28.13091797 11.86705078 28.13091797 10.5 28.125 C9.60667969 28.12886719 8.71335937 28.13273437 7.79296875 28.13671875 C6.94347656 28.13542969 6.09398438 28.13414063 5.21875 28.1328125 C4.43435547 28.13168457 3.64996094 28.13055664 2.84179688 28.12939453 C1 28 1 28 0 27 C-0.08758003 25.00035018 -0.10696576 22.9976389 -0.09765625 20.99609375 C-0.09515869 19.90224365 -0.09266113 18.80839355 -0.09008789 17.68139648 C-0.08098389 16.28091064 -0.07187988 14.8804248 -0.0625 13.4375 C-0.041875 9.003125 -0.02125 4.56875 0 0 Z " fill="#F9CA87" transform="translate(92,4)"/>
<path d="M0 0 C9.24 0 18.48 0 28 0 C27.67 9.24 27.34 18.48 27 28 C18.09 28 9.18 28 0 28 C0 18.76 0 9.52 0 0 Z " fill="#F8C286" transform="translate(302,65)"/>
<path d="M0 0 C8.91 0 17.82 0 27 0 C27 9.24 27 18.48 27 28 C18.09 28 9.18 28 0 28 C0 18.76 0 9.52 0 0 Z " fill="#F6A884" transform="translate(332,250)"/>
<path d="M0 0 C9.24 0 18.48 0 28 0 C28 8.91 28 17.82 28 27 C18.76 27 9.52 27 0 27 C0 18.09 0 9.18 0 0 Z " fill="#F7B585" transform="translate(152,159)"/>
<path d="M0 0 C8.91 0 17.82 0 27 0 C27 9.24 27 18.48 27 28 C18.09 28 9.18 28 0 28 C0 18.76 0 9.52 0 0 Z " fill="#F8C286" transform="translate(332,65)"/>
<path d="M0 0 C8.91 0 17.82 0 27 0 C27 9.24 27 18.48 27 28 C18.09 28 9.18 28 0 28 C0 18.76 0 9.52 0 0 Z " fill="#F8C286" transform="translate(3,65)"/>
<path d="M0 0 C8.91 0 17.82 0 27 0 C27 9.24 27 18.48 27 28 C18.09 28 9.18 28 0 28 C0 18.76 0 9.52 0 0 Z " fill="#F9CA87" transform="translate(33,4)"/>
<path d="M0 0 C9.24 0 18.48 0 28 0 C28 9.24 28 18.48 28 28 C19 28 19 28 16 27 C13.26568283 26.77190557 10.55075247 26.5835729 7.8125 26.4375 C5.234375 26.293125 2.65625 26.14875 0 26 C0 17.42 0 8.84 0 0 Z " fill="#F9CA87" transform="translate(182,4)"/>
<path d="M0 0 C4.30079149 -0.9824143 7.74649978 -1.29698566 12 0 C15.18262977 3.340585 17.04505946 7.52110235 19.0625 11.62109375 C20.5699831 15.11708712 20.5699831 15.11708712 23.12109375 15.71118164 C23.74113281 15.8064917 24.36117187 15.90180176 25 16 C25.40605469 14.94232422 25.40605469 14.94232422 25.8203125 13.86328125 C27.9312753 8.739653 30.02875499 3.95087965 34 0 C38.14973959 -0.94288715 41.82149962 -0.67926361 46 0 C44.4995549 3.17474183 42.71570452 6.03907307 40.77734375 8.96484375 C39.84631836 10.41407227 39.84631836 10.41407227 38.89648438 11.89257812 C37.60529171 13.89952665 36.29570934 15.89477943 34.96679688 17.87695312 C30.18816176 25.42033447 29.10318478 31.07148148 29 40 C25.04 40 21.08 40 17 40 C16.97808594 38.10378906 16.95617187 36.20757812 16.93359375 34.25390625 C16.33104119 26.4440202 13.35573994 21.34119288 9.0625 14.9375 C7.78190815 12.94702872 6.50193403 10.95615984 5.22265625 8.96484375 C4.65297119 8.1049585 4.08328613 7.24507324 3.49633789 6.35913086 C2.18007161 4.28390144 1.04898006 2.21950198 0 0 Z " fill="#0B0706" transform="translate(203,260)"/>
<path d="M0 0 C9.24 0 18.48 0 28 0 C28 8.58 28 17.16 28 26 C18.76 26 9.52 26 0 26 C0 17.42 0 8.84 0 0 Z " fill="#F9CB87" transform="translate(152,4)"/>
<path d="M0 0 C9.24 0 18.48 0 28 0 C28 9.57 28 19.14 28 29 C15.78773985 30.75856546 15.78773985 30.75856546 11 29 C8.1579217 26.60337698 6.32726363 23.8681245 4.4375 20.6875 C3.75046997 19.54015381 3.75046997 19.54015381 3.04956055 18.36962891 C-0.5310244 11.56630619 0 8.40078216 0 0 Z " fill="#F5B484" transform="translate(302,157)"/>
<path d="M0 0 C5.94 0 11.88 0 18 0 C18 8.91 18 17.82 18 27 C8.76 27 -0.48 27 -10 27 C-10 14.55555556 -10 14.55555556 -7 9 C-6.525625 8.05125 -6.05125 7.1025 -5.5625 6.125 C-4 4 -4 4 -1.8125 3.1875 C-0.9153125 3.0946875 -0.9153125 3.0946875 0 3 C0 2.01 0 1.02 0 0 Z " fill="#F5B384" transform="translate(132,159)"/>
<path d="M0 0 C9.9 0 19.8 0 30 0 C28.55602239 3.60994403 27.31805403 6.30589117 25.28515625 9.50390625 C24.76373047 10.32697266 24.24230469 11.15003906 23.70507812 11.99804688 C23.16302734 12.84431641 22.62097656 13.69058594 22.0625 14.5625 C21.52431641 15.41263672 20.98613281 16.26277344 20.43164062 17.13867188 C18.96966755 19.43708825 17.50937343 21.73241268 16 24 C15.51547363 24.74209717 15.03094727 25.48419434 14.53173828 26.2487793 C13 28 13 28 9.64453125 28.390625 C8.37996094 28.34421875 7.11539063 28.2978125 5.8125 28.25 C4.54019531 28.21390625 3.26789063 28.1778125 1.95703125 28.140625 C0.98121094 28.09421875 0.00539063 28.0478125 -1 28 C-1.02891949 23.70834738 -1.04677118 19.41671964 -1.0625 15.125 C-1.07087891 13.90167969 -1.07925781 12.67835938 -1.08789062 11.41796875 C-1.09111328 10.25136719 -1.09433594 9.08476562 -1.09765625 7.8828125 C-1.10289307 6.80402832 -1.10812988 5.72524414 -1.11352539 4.61376953 C-1 2 -1 2 0 0 Z " fill="#F6B484" transform="translate(93,158)"/>
<path d="M0 0 C9.24 0 18.48 0 28 0 C28 9.24 28 18.48 28 28 C23.71 28 19.42 28 15 28 C15 27.34 15 26.68 15 26 C14.01 26 13.02 26 12 26 C9.56197533 23.05720062 7.75281601 19.66142452 5.8125 16.375 C5.25369141 15.47136719 4.69488281 14.56773438 4.11914062 13.63671875 C3.59126953 12.75371094 3.06339844 11.87070313 2.51953125 10.9609375 C1.79407104 9.75123291 1.79407104 9.75123291 1.05395508 8.51708984 C0 6 0 6 0 0 Z " fill="#F6C085" transform="translate(242,65)"/>
<path d="M0 0 C9.24 0 18.48 0 28 0 C27.1165813 5.30051223 26.62010338 7.14291561 23.875 11.36328125 C23.25109375 12.33201172 22.6271875 13.30074219 21.984375 14.29882812 C21.32953125 15.29333984 20.6746875 16.28785156 20 17.3125 C19.34515625 18.32634766 18.6903125 19.34019531 18.015625 20.38476562 C13.22244048 27.77755952 13.22244048 27.77755952 12 29 C8.04 29 4.08 29 0 29 C0 19.43 0 9.86 0 0 Z " fill="#F6BC85" transform="translate(92,96)"/>
<path d="M0 0 C38.94 0 77.88 0 118 0 C118 1.32 118 2.64 118 4 C108.76 4 99.52 4 90 4 C90 13.24 90 22.48 90 32 C89.34 32 88.68 32 88 32 C88 22.43 88 12.86 88 3 C78.76 3 69.52 3 60 3 C60 12.57 60 22.14 60 32 C59.34 32 58.68 32 58 32 C58 22.76 58 13.52 58 4 C48.76 4 39.52 4 30 4 C30 12.58 30 21.16 30 30 C29.34 30 28.68 30 28 30 C28 21.42 28 12.84 28 4 C18.76 4 9.52 4 0 4 C0 2.68 0 1.36 0 0 Z " fill="#EDC281" transform="translate(152,0)"/>
<path d="M0 0 C4.29 0 8.58 0 13 0 C13 9.57 13 19.14 13 29 C3.76 29 -5.48 29 -15 29 C-15 25.37 -15 21.74 -15 18 C-14.01 18.33 -13.02 18.66 -12 19 C-9.94106379 19.22325814 -7.87766347 19.40705759 -5.8125 19.5625 C-4.72582031 19.64628906 -3.63914063 19.73007812 -2.51953125 19.81640625 C-1.27236328 19.90728516 -1.27236328 19.90728516 0 20 C-0.51691406 19.32453125 -1.03382813 18.6490625 -1.56640625 17.953125 C-2.22511719 17.06109375 -2.88382813 16.1690625 -3.5625 15.25 C-4.22378906 14.36828125 -4.88507813 13.4865625 -5.56640625 12.578125 C-7 10 -7 10 -6.87109375 7.83984375 C-5.51346191 4.9723792 -3.30525588 3.13236169 -1 1 C-0.67 0.67 -0.34 0.34 0 0 Z " fill="#F2A182" transform="translate(197,280)"/>
<path d="M0 0 C9.24 0 18.48 0 28 0 C28 9.57 28 19.14 28 29 C18 29 18 29 15.125 27.125 C11.34307742 21.56334915 9.1792904 15.60402625 8 9 C5.36 9 2.72 9 0 9 C0 6.03 0 3.06 0 0 Z " fill="#F4A783" transform="translate(122,250)"/>
<path d="M0 0 C9.24 0 18.48 0 28 0 C28 2.97 28 5.94 28 9 C25.03 9 22.06 9 19 9 C18.90847656 9.67417969 18.81695312 10.34835937 18.72265625 11.04296875 C17.81647225 14.75097572 16.18716901 17.94828493 14.4375 21.3125 C13.9434668 22.28026367 13.9434668 22.28026367 13.43945312 23.26757812 C12.63175745 24.84785228 11.81662387 26.42432105 11 28 C7.37 28 3.74 28 0 28 C0 18.76 0 9.52 0 0 Z " fill="#F5A783" transform="translate(92,250)"/>
<path d="M0 0 C9.24 0 18.48 0 28 0 C28 9.9862473 27.30026804 11.21017434 20.8671875 17.734375 C16.72281789 21.00921747 13.20306364 21.86590042 8 22 C6.80375 22.04125 5.6075 22.0825 4.375 22.125 C3.59125 22.08375 2.8075 22.0425 2 22 C2 24.31 2 26.62 2 29 C1.34 29 0.68 29 0 29 C0 19.43 0 9.86 0 0 Z " fill="#F1AD81" transform="translate(32,188)"/>
<path d="M0 0 C5 2 5 2 6.80078125 4.19921875 C8.25817723 7.60297417 8.2992839 10.12363115 8.1875 13.8125 C8.16042969 14.97394531 8.13335937 16.13539063 8.10546875 17.33203125 C8.07066406 18.21246094 8.03585938 19.09289062 8 20 C11.96 20 15.92 20 20 20 C19.94779297 18.67935547 19.94779297 18.67935547 19.89453125 17.33203125 C19.86746094 16.17058594 19.84039062 15.00914062 19.8125 13.8125 C19.76029297 12.08966797 19.76029297 12.08966797 19.70703125 10.33203125 C20.0319418 6.63671528 20.61454561 4.83046324 23 2 C24.65 1.67 26.3 1.34 28 1 C28 10.24 28 19.48 28 29 C18.76 29 9.52 29 0 29 C0 19.43 0 9.86 0 0 Z " fill="#EF9F80" transform="translate(212,280)"/>
<path d="M0 0 C9.24 0 18.48 0 28 0 C28 2.97 28 5.94 28 9 C25.69 9 23.38 9 21 9 C21.63228516 9.90878906 21.63228516 9.90878906 22.27734375 10.8359375 C26.35929976 17.07892905 27.78700987 21.54534539 28 29 C23.71 29 19.42 29 15 29 C14.896875 27.453125 14.79375 25.90625 14.6875 24.3125 C14.24780225 20.16175323 13.89346784 17.18281463 11 14 C8.69991747 12.73982116 6.48508004 11.89087775 4 11 C4 10.34 4 9.68 4 9 C2.68 9 1.36 9 0 9 C0 6.03 0 3.06 0 0 Z " fill="#F2A582" transform="translate(182,250)"/>
<path d="M0 0 C9 0 9 0 11.625 1.75 C15.41141589 6.32525253 18.1052306 11.84154837 21 17 C21.54398438 17.845625 22.08796875 18.69125 22.6484375 19.5625 C24 22 24 22 25 27 C16.75 27 8.5 27 0 27 C0 18.09 0 9.18 0 0 Z " fill="#F2B182" transform="translate(182,159)"/>
<path d="M0 0 C9.24 0 18.48 0 28 0 C28 2.97 28 5.94 28 9 C27.01 9 26.02 9 25 9 C24.61714844 10.30324219 24.61714844 10.30324219 24.2265625 11.6328125 C22.96610651 15.09304519 21.39630289 17.80561413 19.375 20.875 C18.74335938 21.84179688 18.11171875 22.80859375 17.4609375 23.8046875 C16.73777344 24.89136719 16.73777344 24.89136719 16 26 C13.76953125 25.8984375 13.76953125 25.8984375 11 25 C9.31419787 22.86406223 8.01449138 20.96171347 6.6875 18.625 C6.32849609 18.03460938 5.96949219 17.44421875 5.59960938 16.8359375 C3.93395621 14.01860415 3 12.32492039 3 9 C2.01 9 1.02 9 0 9 C0 6.03 0 3.06 0 0 Z " fill="#F3A682" transform="translate(212,250)"/>
<path d="M0 0 C0.33 0 0.66 0 1 0 C1 1.98 1 3.96 1 6 C9.415 5.505 9.415 5.505 18 5 C17.34 7.31 16.68 9.62 16 12 C15.67 10.68 15.34 9.36 15 8 C8.07 7.505 8.07 7.505 1 7 C1 27.13 1 47.26 1 68 C10.24 68 19.48 68 29 68 C29 53.48 29 38.96 29 24 C25.04 24.495 25.04 24.495 21 25 C21.33 24.01 21.66 23.02 22 22 C30.58 22 39.16 22 48 22 C48 22.66 48 23.32 48 24 C42.39 24 36.78 24 31 24 C31 38.52 31 53.04 31 68 C40.24 68 49.48 68 59 68 C59 55.13 59 42.26 59 29 C56.03 29 53.06 29 50 29 C50 28.67 50 28.34 50 28 C53.63 28 57.26 28 61 28 C61 41.53 61 55.06 61 69 C40.54 69 20.08 69 -1 69 C-1 49.2 -1 29.4 -1 9 C-2.32 9.33 -3.64 9.66 -5 10 C-3.66654496 6.40992874 -2.1056769 3.20429093 0 0 Z " fill="#E39479" transform="translate(241,272)"/>
<path d="M0 0 C9.24 0 18.48 0 28 0 C28.0309375 6.6515625 28.0309375 6.6515625 28.0625 13.4375 C28.071604 14.83798584 28.08070801 16.23847168 28.09008789 17.68139648 C28.09258545 18.77524658 28.09508301 19.86909668 28.09765625 20.99609375 C28.10551147 22.68496704 28.10551147 22.68496704 28.11352539 24.40795898 C28 27 28 27 27 28 C24.66702567 28.04092937 22.33294775 28.04241723 20 28 C19.2066145 25.95900065 18.4153697 23.9171691 17.625 21.875 C17.18414062 20.73804688 16.74328125 19.60109375 16.2890625 18.4296875 C15.11785816 15.31357414 14.05270518 12.15811555 13 9 C8.71 9 4.42 9 0 9 C0 6.03 0 3.06 0 0 Z " fill="#F4A783" transform="translate(272,250)"/>
<path d="M0 0 C0 5.94 0 11.88 0 18 C-6.53306161 21.26653081 -10.7425248 22.51839109 -18 22 C-22.6 19.8 -22.6 19.8 -24 17 C-24.46586875 11.01993929 -22.91321335 7.20453576 -19.6875 2.23828125 C-14.0665672 -2.4431061 -6.90734464 -0.58899838 0 0 Z " fill="#EBA97F" transform="translate(90,188)"/>
<path d="M0 0 C2.05078125 0.03255208 4.1015625 0.06510417 6.15234375 0.09765625 C7.52936431 4.22871792 6.17250393 5.68806842 4.27734375 9.53515625 C2.51423001 13.13928875 1.12868402 16.19229516 0.15234375 20.09765625 C4.11234375 20.09765625 8.07234375 20.09765625 12.15234375 20.09765625 C12.81234375 18.77765625 13.47234375 17.45765625 14.15234375 16.09765625 C17.78234375 16.09765625 21.41234375 16.09765625 25.15234375 16.09765625 C25.15234375 20.38765625 25.15234375 24.67765625 25.15234375 29.09765625 C20.67313778 29.12447784 16.19409024 29.14440802 11.71484375 29.16015625 C10.43544922 29.16853516 9.15605469 29.17691406 7.83789062 29.18554688 C6.01547852 29.19038086 6.01547852 29.19038086 4.15625 29.1953125 C3.03033447 29.20054932 1.90441895 29.20578613 0.74438477 29.21118164 C-1.84765625 29.09765625 -1.84765625 29.09765625 -2.84765625 28.09765625 C-2.94748683 26.11008597 -2.97846378 24.11898105 -2.98046875 22.12890625 C-2.98175781 20.91847656 -2.98304687 19.70804687 -2.984375 18.4609375 C-2.98050781 17.18605469 -2.97664063 15.91117187 -2.97265625 14.59765625 C-2.97652344 13.32277344 -2.98039062 12.04789062 -2.984375 10.734375 C-2.98308594 9.52394531 -2.98179688 8.31351562 -2.98046875 7.06640625 C-2.97934082 5.94685547 -2.97821289 4.82730469 -2.97705078 3.67382812 C-2.7999569 0.14798927 -2.7999569 0.14798927 0 0 Z " fill="#F2A081" transform="translate(34.84765625,279.90234375)"/>
<path d="M0 0 C7.26 0 14.52 0 22 0 C22 9.57 22 19.14 22 29 C15 28 15 28 13.0625 25.5625 C12 23 12 23 12 21 C11.01 20.67 10.02 20.34 9 20 C9 18.68 9 17.36 9 16 C8.01 15.67 7.02 15.34 6 15 C5.21481005 13.29875511 4.43841528 11.59098761 3.76171875 9.84375 C2.96856506 7.78638129 2.96856506 7.78638129 1.3125 5.25 C0 3 0 3 0 0 Z " fill="#F1B482" transform="translate(278,126)"/>
<path d="M0 0 C2.97 0 5.94 0 9 0 C9 9.24 9 18.48 9 28 C-0.24 28 -9.48 28 -19 28 C-19 23.71 -19 19.42 -19 15 C-15.37 15 -11.74 15 -8 15 C-7.34 16.65 -6.68 18.3 -6 20 C-1.71 20 2.58 20 7 20 C6.21625 18.123125 5.4325 16.24625 4.625 14.3125 C3.74687993 12.20963351 2.87178778 10.10549957 2 8 C1.61585937 7.10667969 1.23171875 6.21335937 0.8359375 5.29296875 C0 3 0 3 0 0 Z " fill="#F3A182" transform="translate(81,281)"/>
<path d="M0 0 C6.93 0 13.86 0 21 0 C20.11121096 3.55515616 19.24344543 5.53631261 17.3828125 8.58984375 C16.85816406 9.45673828 16.33351563 10.32363281 15.79296875 11.21679688 C15.24253906 12.11462891 14.69210938 13.01246094 14.125 13.9375 C13.58230469 14.83146484 13.03960937 15.72542969 12.48046875 16.64648438 C11.46475568 18.31905834 10.4469275 19.99035108 9.42626953 21.65991211 C7.93082194 24.03259498 7.93082194 24.03259498 6.63232422 26.79516602 C6.09365723 27.52276123 5.55499023 28.25035645 5 29 C3.35 29 1.7 29 0 29 C0 19.43 0 9.86 0 0 Z " fill="#F5B384" transform="translate(62,157)"/>
<path d="M0 0 C0 9.57 0 19.14 0 29 C-2.31 29 -4.62 29 -7 29 C-7.33 26.69 -7.66 24.38 -8 22 C-9.175625 21.566875 -9.175625 21.566875 -10.375 21.125 C-13 20 -13 20 -15 18 C-15.63604597 11.51233109 -13.99041836 6.87504874 -10.3125 1.5625 C-8 0 -8 0 0 0 Z " fill="#EEAA80" transform="translate(122,188)"/>
<path d="M0 0 C0.66 0 1.32 0 2 0 C2 9.9 2 19.8 2 30 C11.24 30 20.48 30 30 30 C30 20.1 30 10.2 30 0 C30.66 0 31.32 0 32 0 C32 9.9 32 19.8 32 30 C35.28582031 29.98839844 38.57164062 29.97679688 41.95703125 29.96484375 C45.13419498 29.95704831 48.31135765 29.95097431 51.48852539 29.94506836 C53.69914221 29.940035 55.90975569 29.93320783 58.12036133 29.92456055 C61.295093 29.91245141 64.46978072 29.90676175 67.64453125 29.90234375 C69.13059624 29.89460182 69.13059624 29.89460182 70.64668274 29.88670349 C71.56741074 29.88662796 72.48813873 29.88655243 73.43676758 29.88647461 C74.65255241 29.88314369 74.65255241 29.88314369 75.89289856 29.87974548 C78 30 78 30 81 31 C82.89212737 31.22179785 84.78884472 31.40614015 86.6875 31.5625 C87.68136719 31.64628906 88.67523438 31.73007812 89.69921875 31.81640625 C90.83810547 31.90728516 90.83810547 31.90728516 92 32 C92 33.32 92 34.64 92 36 C91.14482285 35.78937424 90.28964569 35.57874847 89.40855408 35.36174011 C78.66522253 32.94082992 68.36185165 32.52675896 57.37890625 32.48828125 C55.53945248 32.47139205 53.70000995 32.4532363 51.86058044 32.43388367 C47.07188433 32.38683722 42.28323378 32.35673684 37.49438477 32.33044434 C32.58665975 32.30040705 27.67909122 32.25395777 22.77148438 32.20898438 C13.18107223 32.12346886 3.5906274 32.05589643 -6 32 C-6.33 32.66 -6.66 33.32 -7 34 C-7 32.68 -7 31.36 -7 30 C-4.69 30 -2.38 30 0 30 C0 20.1 0 10.2 0 0 Z " fill="#C5A06B" transform="translate(120,0)"/>
<path d="M0 0 C6.27 0 12.54 0 19 0 C17.87476095 6.75143429 17.87476095 6.75143429 15.75 10.05078125 C15.3065625 10.74880859 14.863125 11.44683594 14.40625 12.16601562 C13.9421875 12.87435547 13.478125 13.58269531 13 14.3125 C12.5359375 15.04017578 12.071875 15.76785156 11.59375 16.51757812 C8.21866883 21.78133117 8.21866883 21.78133117 7 23 C4.69 23 2.38 23 0 23 C0 15.41 0 7.82 0 0 Z " fill="#F5B884" transform="translate(122,126)"/>
<path d="M0 0 C9.24 0 18.48 0 28 0 C28 2.97 28 5.94 28 9 C20.08 9.33 12.16 9.66 4 10 C3.67 15.94 3.34 21.88 3 28 C2.01 28 1.02 28 0 28 C0 18.76 0 9.52 0 0 Z " fill="#F6A984" transform="translate(152,250)"/>
<path d="M0 0 C8 6 8 6 10.25 9 C13.29788077 13.03209227 17.9448315 14.60972419 22.453125 16.60546875 C25 18 25 18 26 21 C25 22 25 22 22.59155273 22.11352539 C21.54942627 22.10828857 20.5072998 22.10305176 19.43359375 22.09765625 C18.30888672 22.09443359 17.18417969 22.09121094 16.02539062 22.08789062 C14.84138672 22.07951172 13.65738281 22.07113281 12.4375 22.0625 C11.24962891 22.05798828 10.06175781 22.05347656 8.83789062 22.04882812 C5.89190588 22.03699686 2.94594684 22.01906076 0 22 C0 14.74 0 7.48 0 0 Z " fill="#F0AB81" transform="translate(212,195)"/>
<path d="M0 0 C3.96 0 7.92 0 12 0 C12 4.29 12 8.58 12 13 C2.76 13 -6.48 13 -16 13 C-16 10.36 -16 7.72 -16 5 C-11.38 5 -6.76 5 -2 5 C-2 4.34 -2 3.68 -2 3 C-1.34 3 -0.68 3 0 3 C0 2.01 0 1.02 0 0 Z " fill="#F5A283" transform="translate(108,296)"/>
<path d="M0 0 C3.96 0 7.92 0 12 0 C15 4 15 4 14.83740234 6.47558594 C13.40919888 10.78101563 11.00197233 14.41027547 8.625 18.25 C8.13 19.07757813 7.635 19.90515625 7.125 20.7578125 C6.64289063 21.54414062 6.16078125 22.33046875 5.6640625 23.140625 C5.22529785 23.85766602 4.7865332 24.57470703 4.33447266 25.31347656 C3 27 3 27 0 28 C0 18.76 0 9.52 0 0 Z " fill="#F3BE83" transform="translate(122,65)"/>
<path d="M0 0 C0.33 0 0.66 0 1 0 C1 7.59 1 15.18 1 23 C10.24 23 19.48 23 29 23 C29 20.36 29 17.72 29 15 C32.60239038 18.13756581 32.9957244 18.97862202 34 24 C18.49 24 2.98 24 -13 24 C-12.13346701 19.66733507 -11.56242959 17.88205623 -9.3125 14.35546875 C-8.77882812 13.51435547 -8.24515625 12.67324219 -7.6953125 11.80664062 C-6.85613281 10.51016602 -6.85613281 10.51016602 -6 9.1875 C-5.44054687 8.30384766 -4.88109375 7.42019531 -4.3046875 6.50976562 C-1.26755785 1.75966551 -1.26755785 1.75966551 0 0 Z " fill="#C08F68" transform="translate(151,126)"/>
<path d="M0 0 C2.10659067 4.21318133 0.39452679 10.52869644 0 15 C7.26 15 14.52 15 22 15 C21.34 16.65 20.68 18.3 20 20 C19.505 18.515 19.505 18.515 19 17 C12.73 17 6.46 17 0 17 C0 24.59 0 32.18 0 40 C6.31483984 39.47434165 6.31483984 39.47434165 9 38 C8.67 38.99 8.34 39.98 8 41 C-2.56 41 -13.12 41 -24 41 C-22.68 38.03 -21.36 35.06 -20 32 C-19.67 33.32 -19.34 34.64 -19 36 C-19.66 36.99 -20.32 37.98 -21 39 C-20.21496094 38.98839844 -19.42992188 38.97679687 -18.62109375 38.96484375 C-17.57050781 38.95582031 -16.51992187 38.94679687 -15.4375 38.9375 C-14.40496094 38.92589844 -13.37242188 38.91429687 -12.30859375 38.90234375 C-9 39 -9 39 -2 40 C-2 32.41 -2 24.82 -2 17 C-4.97 17.66 -7.94 18.32 -11 19 C-9.41467191 14.44435939 -7.00996919 10.68524231 -4.375 6.6875 C-3.95476562 6.04232422 -3.53453125 5.39714844 -3.1015625 4.73242188 C-2.07161759 3.15239276 -1.03634372 1.57583953 0 0 Z " fill="#E8AE7D" transform="translate(122,109)"/>
<path d="M0 0 C0.66 0 1.32 0 2 0 C2 30.69 2 61.38 2 93 C0.68 93 -0.64 93 -2 93 C-2 82.77 -2 72.54 -2 62 C-1.34 62 -0.68 62 0 62 C0 41.54 0 21.08 0 0 Z " fill="#F4C284" transform="translate(362,0)"/>
<path d="M0 0 C0.66 0 1.32 0 2 0 C3.32708554 1.90693823 4.56079518 3.879164 5.75 5.875 C6.10126953 6.46273193 6.45253906 7.05046387 6.81445312 7.65600586 C7.53302909 8.85857729 8.2491702 10.06260691 8.96289062 11.26806641 C9.90558481 12.84233019 10.8807716 14.39702219 11.859375 15.94921875 C12.40078125 16.81160156 12.9421875 17.67398438 13.5 18.5625 C13.9846875 19.32691406 14.469375 20.09132813 14.96875 20.87890625 C16 23 16 23 16 27 C15.34 27 14.68 27 14 27 C13.731875 27.763125 13.46375 28.52625 13.1875 29.3125 C12 32 12 32 9 35 C9 28.73 9 22.46 9 16 C7.68 16.33 6.36 16.66 5 17 C5.33 16.34 5.66 15.68 6 15 C2.37 14.67 -1.26 14.34 -5 14 C-5 14.66 -5 15.32 -5 16 C-6.65 16.33 -8.3 16.66 -10 17 C-8.57394582 13.07297642 -6.70550338 9.75380481 -4.4375 6.25 C-3.81746094 5.28578125 -3.19742188 4.3215625 -2.55859375 3.328125 C-1 1 -1 1 0 0 Z " fill="#E0AE79" transform="translate(141,79)"/>
<path d="M0 0 C13.2 0 26.4 0 40 0 C39.67 0.66 39.34 1.32 39 2 C36.03 1.67 33.06 1.34 30 1 C30 9.91 30 18.82 30 28 C37.92 27.67 45.84 27.34 54 27 C54.33 26.34 54.66 25.68 55 25 C55.99 26.32 56.98 27.64 58 29 C57.67 29.66 57.34 30.32 57 31 C48.09 30.67 39.18 30.34 30 30 C30 39.57 30 49.14 30 59 C29.34 59 28.68 59 28 59 C28 39.86 28 20.72 28 1 C18.76 1 9.52 1 0 1 C0 0.67 0 0.34 0 0 Z " fill="#E2A47A" transform="translate(152,158)"/>
<path d="M0 0 C0.33 0 0.66 0 1 0 C1 2.31 1 4.62 1 7 C3.31 7 5.62 7 8 7 C8 20.86 8 34.72 8 49 C10.64 49 13.28 49 16 49 C16 49.33 16 49.66 16 50 C9.73 50 3.46 50 -3 50 C-3 49.67 -3 49.34 -3 49 C-0.03 49 2.94 49 6 49 C6 35.8 6 22.6 6 9 C-22.05 8.67 -50.1 8.34 -79 8 C-79 7.67 -79 7.34 -79 7 C-52.93 7 -26.86 7 0 7 C0 4.69 0 2.38 0 0 Z " fill="#BC8365" transform="translate(114,210)"/>
<path d="M0 0 C1.8671875 0.23046875 1.8671875 0.23046875 4 1 C5.1953125 2.92578125 5.1953125 2.92578125 6.125 5.3125 C6.43695313 6.09238281 6.74890625 6.87226563 7.0703125 7.67578125 C7.37710937 8.44277344 7.68390625 9.20976562 8 10 C8.55300781 11.01126953 8.55300781 11.01126953 9.1171875 12.04296875 C10 14 10 14 10 18 C4.39 18 -1.22 18 -7 18 C-6.25152135 14.25760675 -5.6034232 11.78101259 -4.0625 8.4375 C-3.72347656 7.69371094 -3.38445312 6.94992187 -3.03515625 6.18359375 C-2.05100598 4.10759375 -1.03671624 2.05018772 0 0 Z " fill="#BD7F65" transform="translate(274,268)"/>
<path d="M0 0 C0.99 0 1.98 0 3 0 C10 13.75862069 10 13.75862069 10 18 C4.39 18 -1.22 18 -7 18 C-6.09789442 13.48947211 -4.88930512 10.29874909 -2.9375 6.1875 C-2.11572266 4.44533203 -2.11572266 4.44533203 -1.27734375 2.66796875 C-0.85582031 1.78753906 -0.43429688 0.90710938 0 0 Z " fill="#C8876B" transform="translate(119,268)"/>
<path d="M0 0 C0.99 0 1.98 0 3 0 C3.25394531 0.66386719 3.50789063 1.32773437 3.76953125 2.01171875 C5.56089397 6.60753696 7.44005442 10.77608979 10 15 C10 15.99 10 16.98 10 18 C4.39 18 -1.22 18 -7 18 C-6.2748802 13.64928118 -5.81068698 11.09254203 -4.0625 7.3125 C-3.72347656 6.56613281 -3.38445313 5.81976563 -3.03515625 5.05078125 C-2 3 -2 3 0 0 Z " fill="#EEA080" transform="translate(60,268)"/>
<path d="M0 0 C0.99 0 1.98 0 3 0 C3 6.93 3 13.86 3 21 C-1.29 21 -5.58 21 -10 21 C-9.56137195 15.12389664 -7.87703239 11.42511172 -4.625 6.5625 C-4.22539063 5.92634766 -3.82578125 5.29019531 -3.4140625 4.63476562 C-2.2265625 2.81640625 -2.2265625 2.81640625 0 0 Z " fill="#E5A77C" transform="translate(87,165)"/>
<path d="M0 0 C0.68578125 -0.01224609 1.3715625 -0.02449219 2.078125 -0.03710938 C5.81796797 -0.04802331 7.4349737 0.0608158 10.625 2.1875 C9.75 9.0625 9.75 9.0625 8.625 10.1875 C5.76232433 10.26075168 2.924281 10.27988205 0.0625 10.25 C-0.74380859 10.24548828 -1.55011719 10.24097656 -2.38085938 10.23632812 C-4.37893756 10.22450518 -6.37697783 10.20656914 -8.375 10.1875 C-8.40189216 8.70843108 -8.42134621 7.22922517 -8.4375 5.75 C-8.44910156 4.92628906 -8.46070313 4.10257812 -8.47265625 3.25390625 C-8.25034862 -1.45012317 -3.65817458 0.00339979 0 0 Z " fill="#A56F58" transform="translate(175.375,268.8125)"/>
<path d="M0 0 C0 0.66 0 1.32 0 2 C-9.24 2 -18.48 2 -28 2 C-28 11.24 -28 20.48 -28 30 C-28.66 30.33 -29.32 30.66 -30 31 C-30 21.43 -30 11.86 -30 2 C-39.24 2 -48.48 2 -58 2 C-58 1.34 -58 0.68 -58 0 C-38.55969072 -0.9505684 -19.44030928 -0.9505684 0 0 Z " fill="#E69E7B" transform="translate(180,248)"/>
<path d="M0 0 C4.62 0 9.24 0 14 0 C14 5.94 14 11.88 14 18 C13.01 18.33 12.02 18.66 11 19 C11 18.01 11 17.02 11 16 C10.4225 15.79375 9.845 15.5875 9.25 15.375 C6.15522364 13.48374778 4.8081237 11.09964063 3 8 C3 7.34 3 6.68 3 6 C2.34 6 1.68 6 1 6 C0.67 4.02 0.34 2.04 0 0 Z " fill="#F0AD81" transform="translate(316,188)"/>
<path d="M0 0 C0.99 0 1.98 0 3 0 C4.53515625 2.01171875 4.53515625 2.01171875 6.0625 4.6875 C6.56910156 5.55761719 7.07570312 6.42773438 7.59765625 7.32421875 C9 10 9 10 11 15 C4.73 15 -1.54 15 -8 15 C-6.51314565 11.28286413 -5.05643676 8.11220054 -3.0625 4.6875 C-2.30646484 3.36298828 -2.30646484 3.36298828 -1.53515625 2.01171875 C-1.02855469 1.34785156 -0.52195313 0.68398437 0 0 Z " fill="#EEB480" transform="translate(160,111)"/>
<path d="M0 0 C0.66 0 1.32 0 2 0 C2 19.47 2 38.94 2 59 C1.01 59 0.02 59 -1 59 C-1.15858475 39.30621418 -0.71994065 19.67773955 0 0 Z " fill="#F5B985" transform="translate(362,96)"/>
<path d="M0 0 C1.04590805 0.00222061 2.0918161 0.00444122 3.16941833 0.00672913 C4.35056717 0.00680466 5.531716 0.00688019 6.74865723 0.00695801 C8.03404892 0.01211929 9.31944061 0.01728058 10.64378357 0.02259827 C12.60601112 0.02472069 12.60601112 0.02472069 14.60787964 0.02688599 C18.09150591 0.03071042 21.57509071 0.04054005 25.05870056 0.05158997 C28.6111444 0.06180569 32.16359491 0.06638395 35.71604919 0.07142639 C42.69067564 0.0821624 49.66527449 0.09923792 56.63987732 0.12025452 C56.63987732 0.45025452 56.63987732 0.78025452 56.63987732 1.12025452 C43.76987732 1.12025452 30.89987732 1.12025452 17.63987732 1.12025452 C17.63987732 10.36025452 17.63987732 19.60025452 17.63987732 29.12025452 C16.97987732 29.12025452 16.31987732 29.12025452 15.63987732 29.12025452 C15.63987732 20.21025452 15.63987732 11.30025452 15.63987732 2.12025452 C9.69987732 2.12025452 3.75987732 2.12025452 -2.36012268 2.12025452 C-2.36012268 3.11025452 -2.36012268 4.10025452 -2.36012268 5.12025452 C-3.35012268 5.45025452 -4.34012268 5.78025452 -5.36012268 6.12025452 C-3.06626884 0.15623454 -3.06626884 0.15623454 0 0 Z " fill="#C9946C" transform="translate(134.36012268066406,156.87974548339844)"/>
<path d="M0 0 C0 5.94 0 11.88 0 18 C-0.99 18 -1.98 18 -3 18 C-4.82421875 15.55078125 -4.82421875 15.55078125 -6.6875 12.3125 C-7.31011719 11.25675781 -7.93273437 10.20101562 -8.57421875 9.11328125 C-9.9778112 6.0484506 -10.32531839 4.30842667 -10 1 C-8 0 -8 0 0 0 Z " fill="#EFB881" transform="translate(270,94)"/>
<path d="M0 0 C1.9375 0.75 1.9375 0.75 4 2 C4.625 4.0625 4.625 4.0625 5 6 C5.99 6.495 5.99 6.495 7 7 C7.33 6.34 7.66 5.68 8 5 C10 12.625 10 12.625 10 16 C-0.73549791 16.02317366 -11.47098986 16.04094075 -22.20650768 16.05181217 C-27.1914731 16.05702999 -32.17642139 16.06410769 -37.16137695 16.07543945 C-41.97242209 16.0863074 -46.78345076 16.09228514 -51.59450722 16.09487724 C-53.42970349 16.09672443 -55.26489886 16.10033151 -57.10008812 16.10573006 C-59.67115601 16.1129923 -62.24215592 16.11398875 -64.81323242 16.11352539 C-65.57136734 16.11712067 -66.32950226 16.12071594 -67.11061096 16.12442017 C-70.86758788 16.11709709 -74.34748443 15.90545566 -78 15 C-78 14.67 -78 14.34 -78 14 C-49.62 14 -21.24 14 8 14 C7.505 12.02 7.505 12.02 7 10 C6.34 10 5.68 10 5 10 C3 7 3 7 3 3 C2.01 2.67 1.02 2.34 0 2 C0 1.34 0 0.68 0 0 Z " fill="#8E644C" transform="translate(323,202)"/>
<path d="M0 0 C1 2 1 2 0 13 C9.24 13 18.48 13 28 13 C28 13.66 28 14.32 28 15 C15.79 15.33 3.58 15.66 -9 16 C-7.36768634 11.91921584 -5.7416683 8.82515683 -3.375 5.1875 C-2.74335937 4.21167969 -2.11171875 3.23585937 -1.4609375 2.23046875 C-0.73777344 1.12638672 -0.73777344 1.12638672 0 0 Z " fill="#E4A57B" transform="translate(122,173)"/>
<path d="M0 0 C0 5.61 0 11.22 0 17 C-8 17 -8 17 -10 16 C-6.68965517 0 -6.68965517 0 0 0 Z " fill="#E9AE7E" transform="translate(150,132)"/>
<path d="M0 0 C3.96 0 7.92 0 12 0 C10.502178 3.74455499 9.42500578 6.12771236 7.125 9.25 C6.63257812 9.93578125 6.14015625 10.6215625 5.6328125 11.328125 C4 13 4 13 0 14 C0 9.38 0 4.76 0 0 Z " fill="#F2AE82" transform="translate(92,188)"/>
<path d="M0 0 C9.24 0 18.48 0 28 0 C28 1.32 28 2.64 28 4 C18.76 4 9.52 4 0 4 C0 2.68 0 1.36 0 0 Z " fill="#F0C582" transform="translate(272,0)"/>
<path d="M0 0 C9.24 0 18.48 0 28 0 C28 1.32 28 2.64 28 4 C18.76 4 9.52 4 0 4 C0 2.68 0 1.36 0 0 Z " fill="#F0C582" transform="translate(122,0)"/>
<path d="M0 0 C9.24 0 18.48 0 28 0 C28 1.32 28 2.64 28 4 C18.76 4 9.52 4 0 4 C0 2.68 0 1.36 0 0 Z " fill="#F0C582" transform="translate(92,0)"/>
<path d="M0 0 C4.29154022 -0.0867562 8.58285668 -0.1403089 12.875 -0.1875 C14.70998047 -0.22520508 14.70998047 -0.22520508 16.58203125 -0.26367188 C18.33193359 -0.27817383 18.33193359 -0.27817383 20.1171875 -0.29296875 C21.73536377 -0.31653442 21.73536377 -0.31653442 23.38623047 -0.34057617 C24.68004639 -0.17199097 24.68004639 -0.17199097 26 0 C28 3 28 3 28 6 C31.63 6 35.26 6 39 6 C39.33 5.34 39.66 4.68 40 4 C40 4.99 40 5.98 40 7 C35.71 7 31.42 7 27 7 C26.34 5.68 25.68 4.36 25 3 C22.35212912 2.29626983 22.35212912 2.29626983 19.375 2.25 C17.60125 2.1675 15.8275 2.085 14 2 C14 6.95 14 11.9 14 17 C13.34 17 12.68 17 12 17 C12 12.05 12 7.1 12 2 C9.339375 2.2165625 9.339375 2.2165625 6.625 2.4375 C5.12839844 2.55931641 5.12839844 2.55931641 3.6015625 2.68359375 C1.02072387 2.84965626 1.02072387 2.84965626 -1 4 C-0.67 2.68 -0.34 1.36 0 0 Z " fill="#C8846B" transform="translate(48,294)"/>
<path d="M0 0 C2.64 0 5.28 0 8 0 C8.340192 4.93278407 7.39691305 7.94803545 5.125 12.3125 C4.59132813 13.36050781 4.05765625 14.40851563 3.5078125 15.48828125 C2 18 2 18 0 19 C0 12.73 0 6.46 0 0 Z " fill="#F1A181" transform="translate(92,280)"/>
<path d="M0 0 C2.61500768 2.36595933 4.38999603 4.86049226 6 8 C5.67 8.66 5.34 9.32 5 10 C4.34 9.67 3.68 9.34 3 9 C3 18.57 3 28.14 3 38 C2.34 38 1.68 38 1 38 C1 28.43 1 18.86 1 9 C-6.7588388 9.06550982 -6.7588388 9.06550982 -14 11 C-13.67 10.01 -13.34 9.02 -13 8 C-8.38 8 -3.76 8 1 8 C0.67 5.36 0.34 2.72 0 0 Z " fill="#E19678" transform="translate(209,271)"/>
<path d="M0 0 C3.3 0 6.6 0 10 0 C9.43183168 3.90096055 8.30753577 6.53869634 6.125 9.8125 C5.61195312 10.60269531 5.09890625 11.39289063 4.5703125 12.20703125 C4.05210938 12.79871094 3.53390625 13.39039063 3 14 C2.01 14 1.02 14 0 14 C0 9.38 0 4.76 0 0 Z " fill="#F2B683" transform="translate(92,126)"/>
<path d="M0 0 C9.24 0 18.48 0 28 0 C28 0.99 28 1.98 28 3 C18.76 3 9.52 3 0 3 C0 2.01 0 1.02 0 0 Z " fill="#EA9A7D" transform="translate(272,309)"/>
<path d="M0 0 C9.24 0 18.48 0 28 0 C28 0.99 28 1.98 28 3 C18.76 3 9.52 3 0 3 C0 2.01 0 1.02 0 0 Z " fill="#EA9A7D" transform="translate(152,309)"/>
<path d="M0 0 C9.24 0 18.48 0 28 0 C28 0.99 28 1.98 28 3 C18.76 3 9.52 3 0 3 C0 2.01 0 1.02 0 0 Z " fill="#EA9A7D" transform="translate(122,309)"/>
<path d="M0 0 C8.25 0 16.5 0 25 0 C25 0.99 25 1.98 25 3 C19.555 2.505 19.555 2.505 14 2 C14 6.29 14 10.58 14 15 C13.34 15 12.68 15 12 15 C12 10.71 12 6.42 12 2 C8.04 2 4.08 2 0 2 C0 2.99 0 3.98 0 5 C-0.66 5 -1.32 5 -2 5 C-1.34 3.35 -0.68 1.7 0 0 Z " fill="#CD886E" transform="translate(108,294)"/>
<path d="M0 0 C3.96 0 7.92 0 12 0 C12 2.31 12 4.62 12 7 C8.04 7 4.08 7 0 7 C0 4.69 0 2.38 0 0 Z " fill="#F1A381" transform="translate(168,270)"/>
<path d="M0 0 C6.49616668 -0.02532428 12.99232066 -0.04285601 19.48852539 -0.05493164 C21.69914221 -0.059965 23.90975569 -0.06679217 26.12036133 -0.07543945 C29.295093 -0.08754859 32.46978072 -0.09323825 35.64453125 -0.09765625 C37.13059624 -0.10539818 37.13059624 -0.10539818 38.64668274 -0.11329651 C39.56741074 -0.11337204 40.48813873 -0.11344757 41.43676758 -0.11352539 C42.65255241 -0.11685631 42.65255241 -0.11685631 43.89289856 -0.12025452 C46 0 46 0 49 1 C50.89212737 1.22179785 52.78884472 1.40614015 54.6875 1.5625 C55.68136719 1.64628906 56.67523438 1.73007812 57.69921875 1.81640625 C58.83810547 1.90728516 58.83810547 1.90728516 60 2 C60 3.32 60 4.64 60 6 C55.05 5.01 50.1 4.02 45 3 C45 2.34 45 1.68 45 1 C30.15 1 15.3 1 0 1 C0 0.67 0 0.34 0 0 Z " fill="#DFB479" transform="translate(152,30)"/>
<path d="M0 0 C9.24 0 18.48 0 28 0 C27.67 0.99 27.34 1.98 27 3 C18.09 3 9.18 3 0 3 C0 2.01 0 1.02 0 0 Z " fill="#EFC582" transform="translate(332,0)"/>
<path d="M0 0 C8.58 0 17.16 0 26 0 C26 0.66 26 1.32 26 2 C20.39 2 14.78 2 9 2 C9 6.29 9 10.58 9 15 C8.34 15 7.68 15 7 15 C7 10.71 7 6.42 7 2 C4.36 2.33 1.72 2.66 -1 3 C-0.67 2.01 -0.34 1.02 0 0 Z " fill="#CC876D" transform="translate(263,294)"/>
<path d="M0 0 C0.66 0 1.32 0 2 0 C2 12.21 2 24.42 2 37 C-2 33 -2 33 -3 30 C-2.34 30 -1.68 30 -1 30 C-0.67 20.1 -0.34 10.2 0 0 Z " fill="#E6B87D" transform="translate(240,32)"/>
<path d="M0 0 C0.66 0 1.32 0 2 0 C2 0.66 2 1.32 2 2 C6.95 2 11.9 2 17 2 C17 10.25 17 18.5 17 27 C15.68 25.35 14.36 23.7 13 22 C13.66 21.67 14.32 21.34 15 21 C15 15.06 15 9.12 15 3 C11.7 3.33 8.4 3.66 5 4 C4.67 4.99 4.34 5.98 4 7 C2.02 3.535 2.02 3.535 0 0 Z " fill="#E1AD7A" transform="translate(255,91)"/>
<path d="M0 0 C0.99 0 1.98 0 3 0 C3.25394531 0.66386719 3.50789063 1.32773437 3.76953125 2.01171875 C5.56089397 6.60753696 7.44005442 10.77608979 10 15 C10 15.99 10 16.98 10 18 C4.39 18 -1.22 18 -7 18 C-6.67 16.68 -6.34 15.36 -6 14 C-6 14.99 -6 15.98 -6 17 C-1.38 17 3.24 17 8 17 C7.67 15.68 7.34 14.36 7 13 C5.35 13 3.7 13 2 13 C2 10.03 2 7.06 2 4 C1.01 3.67 0.02 3.34 -1 3 C-0.67 2.01 -0.34 1.02 0 0 Z " fill="#B67B62" transform="translate(60,268)"/>
<path d="M0 0 C5.96045198 2.38418079 5.96045198 2.38418079 8 7 C8.1875 9.8125 8.1875 9.8125 8 12 C5.36 12 2.72 12 0 12 C0 8.04 0 4.08 0 0 Z " fill="#EDBB80" transform="translate(122,51)"/>
<path d="M0 0 C0.66 0 1.32 0 2 0 C2 9.24 2 18.48 2 28 C2.66 28.33 3.32 28.66 4 29 C2.68 30.65 1.36 32.3 0 34 C0 22.78 0 11.56 0 0 Z " fill="#E2B07B" transform="translate(120,65)"/>
<path d="M0 0 C6.93 0.495 6.93 0.495 14 1 C13.01 2.485 13.01 2.485 12 4 C12 3.34 12 2.68 12 2 C8.7 2 5.4 2 2 2 C2 6.62 2 11.24 2 16 C2.99 16.33 3.98 16.66 5 17 C3.69593116 19.01920337 2.36176581 21.01924973 1 23 C0.67 23 0.34 23 0 23 C0 15.41 0 7.82 0 0 Z " fill="#E1A979" transform="translate(90,124)"/>
<path d="M0 0 C1.47193312 2.94386623 0.84936173 5.37390036 0.5625 8.625 C0.46066406 9.81351563 0.35882813 11.00203125 0.25390625 12.2265625 C0.17011719 13.14179687 0.08632812 14.05703125 0 15 C-0.66 15 -1.32 15 -2 15 C-2.33 13.68 -2.66 12.36 -3 11 C-3.226875 11.5775 -3.45375 12.155 -3.6875 12.75 C-5.33038023 15.5663661 -7.39533227 17.08077114 -10 19 C-10 15.70767651 -9.53392235 14.89675367 -7.8125 12.20703125 C-7.36132812 11.49482422 -6.91015625 10.78261719 -6.4453125 10.04882812 C-5.96835938 9.31083984 -5.49140625 8.57285156 -5 7.8125 C-4.52304688 7.06291016 -4.04609375 6.31332031 -3.5546875 5.54101562 C-2.37575044 3.69008444 -1.19070421 1.84337479 0 0 Z " fill="#CA996D" transform="translate(122,109)"/>
<path d="M0 0 C2.28341719 2.28341719 4.12397258 4.40929546 6 7 C5.67 7.66 5.34 8.32 5 9 C4.34 8.34 3.68 7.68 3 7 C2.67 13.93 2.34 20.86 2 28 C1.34 28 0.68 28 0 28 C0 18.76 0 9.52 0 0 Z " fill="#D79A74" transform="translate(210,189)"/>
<path d="M0 0 C0.33 1.32 0.66 2.64 1 4 C0.01 5.485 0.01 5.485 -1 7 C2.95099928 7.0246985 6.90196874 7.04285923 10.85302734 7.05493164 C12.85906551 7.06244036 14.86508202 7.0751447 16.87109375 7.08789062 C18.12792969 7.09111328 19.38476562 7.09433594 20.6796875 7.09765625 C21.84226074 7.10289307 23.00483398 7.10812988 24.20263672 7.11352539 C26.95502192 7.19356283 26.95502192 7.19356283 29 6 C28.67 6.99 28.34 7.98 28 9 C17.44 9 6.88 9 -4 9 C-2.68 6.03 -1.36 3.06 0 0 Z " fill="#B78863" transform="translate(102,141)"/>
<path d="M0 0 C0.33 0 0.66 0 1 0 C1 1.98 1 3.96 1 6 C9.415 5.505 9.415 5.505 18 5 C17.34 7.31 16.68 9.62 16 12 C15.67 10.68 15.34 9.36 15 8 C8.07 7.505 8.07 7.505 1 7 C1 7.66 1 8.32 1 9 C-0.98 9.33 -2.96 9.66 -5 10 C-3.66654496 6.40992874 -2.1056769 3.20429093 0 0 Z " fill="#D79173" transform="translate(241,272)"/>
<path d="M0 0 C0.99 0 1.98 0 3 0 C5.21538462 5.41538462 5.21538462 5.41538462 4.125 8.375 C3.75375 8.91125 3.3825 9.4475 3 10 C2.34 10 1.68 10 1 10 C0.67 8.68 0.34 7.36 0 6 C-0.66 7.65 -1.32 9.3 -2 11 C-1.01 11 -0.02 11 1 11 C1 11.66 1 12.32 1 13 C-0.98 13 -2.96 13 -5 13 C-4.54554036 11.58208592 -4.08625056 10.16571954 -3.625 8.75 C-3.24214844 7.56664062 -3.24214844 7.56664062 -2.8515625 6.359375 C-2.04826333 4.13372042 -1.10288338 2.09068328 0 0 Z " fill="#C28368" transform="translate(119,268)"/>
<path d="M0 0 C1.65 0 3.3 0 5 0 C4.67 3.3 4.34 6.6 4 10 C2.576875 9.9690625 2.576875 9.9690625 1.125 9.9375 C-1.90666283 9.77448174 -1.90666283 9.77448174 -4 11 C-3.52269162 9.5410574 -3.04308958 8.08286504 -2.5625 6.625 C-2.29566406 5.81289063 -2.02882812 5.00078125 -1.75390625 4.1640625 C-1 2 -1 2 0 0 Z " fill="#C28368" transform="translate(58,271)"/>
<path d="M0 0 C0.33 0 0.66 0 1 0 C1 7.59 1 15.18 1 23 C0.34 23 -0.32 23 -1 23 C-1.33 17.72 -1.66 12.44 -2 7 C-2.99 7.495 -2.99 7.495 -4 8 C-2.87548273 5.0280615 -1.77706209 2.66559313 0 0 Z " fill="#D39E72" transform="translate(151,126)"/>
<path d="M0 0 C3.96 0 7.92 0 12 0 C12.33 1.32 12.66 2.64 13 4 C8.71 4 4.42 4 0 4 C0 2.68 0 1.36 0 0 Z " fill="#EFA180" transform="translate(114,281)"/>
<path d="M0 0 C0.66 0 1.32 0 2 0 C2 10.23 2 20.46 2 31 C2.66 31 3.32 31 4 31 C4 28.69 4 26.38 4 24 C4.33 24 4.66 24 5 24 C5 26.97 5 29.94 5 33 C3.35 33 1.7 33 0 33 C0 22.11 0 11.22 0 0 Z " fill="#D99B75" transform="translate(30,186)"/>
<path d="M0 0 C0.33 0 0.66 0 1 0 C1 12.87 1 25.74 1 39 C0.67 39 0.34 39 0 39 C0 33.06 0 27.12 0 21 C-0.99 21 -1.98 21 -3 21 C-3 20.01 -3 19.02 -3 18 C-2.01 18 -1.02 18 0 18 C0 12.06 0 6.12 0 0 Z " fill="#E89C7C" transform="translate(155,260)"/>
<path d="M0 0 C2.64 0.33 5.28 0.66 8 1 C8 4.63 8 8.26 8 12 C4.78119883 8.2064129 2.3836813 4.34170523 0 0 Z " fill="#E4A77B" transform="translate(294,154)"/>
<path d="M0 0 C0.66 0 1.32 0 2 0 C2 0.66 2 1.32 2 2 C2.66 2 3.32 2 4 2 C4.042721 3.66611905 4.04063832 5.33382885 4 7 C3 8 3 8 -0.0625 8.0625 C-1.031875 8.041875 -2.00125 8.02125 -3 8 C-2.25 2.25 -2.25 2.25 0 0 Z " fill="#F2A382" transform="translate(275,271)"/>
<path d="M0 0 C0.33 0 0.66 0 1 0 C1.33 3.63 1.66 7.26 2 11 C4.31 11.33 6.62 11.66 9 12 C9 12.33 9 12.66 9 13 C3.06 13 -2.88 13 -9 13 C-9 12.67 -9 12.34 -9 12 C-6.36 12 -3.72 12 -1 12 C-1.01160156 11.21753906 -1.02320313 10.43507813 -1.03515625 9.62890625 C-1.04417969 8.61699219 -1.05320312 7.60507813 -1.0625 6.5625 C-1.07410156 5.55316406 -1.08570313 4.54382813 -1.09765625 3.50390625 C-1 1 -1 1 0 0 Z " fill="#D49172" transform="translate(61,247)"/>
<path d="M0 0 C1.98 0.99 1.98 0.99 4 2 C4.75 5.125 4.75 5.125 5 8 C4.34 8 3.68 8 3 8 C2.67 9.32 2.34 10.64 2 12 C1.34 12 0.68 12 0 12 C0 8.04 0 4.08 0 0 Z " fill="#E3AE7A" transform="translate(152,98)"/>
<path d="M0 0 C3.96 0.33 7.92 0.66 12 1 C12 1.99 12 2.98 12 4 C9.03 4 6.06 4 3 4 C3.33 5.65 3.66 7.3 4 9 C2 8 2 8 1.3671875 6.15234375 C0.91145833 4.1015625 0.45572917 2.05078125 0 0 Z " fill="#D58F72" transform="translate(78,277)"/>
<path d="M0 0 C2.97 0 5.94 0 9 0 C9.66 1.32 10.32 2.64 11 4 C7.37 4 3.74 4 0 4 C0 2.68 0 1.36 0 0 Z " fill="#F2A382" transform="translate(272,281)"/>
<path d="M0 0 C1.65 0 3.3 0 5 0 C5 3.63 5 7.26 5 11 C2.13888288 8.13888288 1.2084996 6.7184603 0 3 C0 2.01 0 1.02 0 0 Z " fill="#ED9F7F" transform="translate(295,280)"/>
<path d="M0 0 C1 2 1 2 0.3125 4.1875 C-3.95514512 13.33245383 -3.95514512 13.33245383 -7.25 15.4375 C-8.11625 15.7159375 -8.11625 15.7159375 -9 16 C-7.56691865 12.04093183 -5.66858051 8.71281819 -3.375 5.1875 C-2.74335937 4.21167969 -2.11171875 3.23585937 -1.4609375 2.23046875 C-0.73777344 1.12638672 -0.73777344 1.12638672 0 0 Z " fill="#B48260" transform="translate(122,173)"/>
<path d="M0 0 C4.29 0 8.58 0 13 0 C10 3 10 3 6.64453125 3.29296875 C5.37996094 3.25816406 4.11539063 3.22335938 2.8125 3.1875 C1.54019531 3.16042969 0.26789063 3.13335937 -1.04296875 3.10546875 C-2.01878906 3.07066406 -2.99460938 3.03585938 -4 3 C-2.68 2.67 -1.36 2.34 0 2 C0 1.34 0 0.68 0 0 Z " fill="#ECB680" transform="translate(136,93)"/>
<path d="M0 0 C0.33 0.99 0.66 1.98 1 3 C5.29 3 9.58 3 14 3 C14 3.66 14 4.32 14 5 C8.72 5 3.44 5 -2 5 C-1.34 3.35 -0.68 1.7 0 0 Z " fill="#D39972" transform="translate(76,183)"/>
<path d="M0 0 C9.9 0 19.8 0 30 0 C29.34 1.65 28.68 3.3 28 5 C27.67 3.68 27.34 2.36 27 1 C18.09 1 9.18 1 0 1 C0 0.67 0 0.34 0 0 Z " fill="#E3A77A" transform="translate(93,158)"/>
<path d="M0 0 C1.37562854 1.28965176 2.70766393 2.62689293 4 4 C4 4.66 4 5.32 4 6 C-2.27 6 -8.54 6 -15 6 C-14.34 4.35 -13.68 2.7 -13 1 C-12.67 2.32 -12.34 3.64 -12 5 C-7.38 5 -2.76 5 2 5 C1.34 3.35 0.68 1.7 0 0 Z " fill="#C39369" transform="translate(167,120)"/>
<path d="M0 0 C3 3 3 3 3.07421875 6.13671875 C2.94660156 7.30847656 2.81898438 8.48023438 2.6875 9.6875 C2.50767578 11.45673828 2.50767578 11.45673828 2.32421875 13.26171875 C2.21722656 14.16535156 2.11023438 15.06898438 2 16 C1.34 16 0.68 16 0 16 C0 10.72 0 5.44 0 0 Z " fill="#D68D72" transform="translate(180,293)"/>
<path d="M0 0 C4.95 0 9.9 0 15 0 C15 1.32 15 2.64 15 4 C10.05 3.01 5.1 2.02 0 1 C0 0.67 0 0.34 0 0 Z " fill="#BD9866" transform="translate(197,32)"/>
<path d="M0 0 C1.9375 0.75 1.9375 0.75 4 2 C4.625 4.0625 4.625 4.0625 5 6 C5.66 6.33 6.32 6.66 7 7 C7.33 6.34 7.66 5.68 8 5 C8.33 7.31 8.66 9.62 9 12 C8.34 12 7.68 12 7 12 C7 11.34 7 10.68 7 10 C6.34 10 5.68 10 5 10 C3 7 3 7 3 3 C2.01 2.67 1.02 2.34 0 2 C0 1.34 0 0.68 0 0 Z " fill="#AC7A5D" transform="translate(323,202)"/>
<path d="M0 0 C1.98 0.495 1.98 0.495 4 1 C3.34 3.31 2.68 5.62 2 8 C1.01 7.67 0.02 7.34 -1 7 C-0.67 4.69 -0.34 2.38 0 0 Z " fill="#E99E7D" transform="translate(59,271)"/>
<path d="M0 0 C2.0625 0.4375 2.0625 0.4375 4 1 C4.33 2.32 4.66 3.64 5 5 C4.34 5 3.68 5 3 5 C3 4.34 3 3.68 3 3 C-0.24849977 4.72226496 -0.24849977 4.72226496 -1 8 C-1.66 8 -2.32 8 -3 8 C-1.125 1.125 -1.125 1.125 0 0 Z " fill="#9F6B55" transform="translate(274,268)"/>
<path d="M0 0 C0.625 1.8125 0.625 1.8125 1 4 C0.01 5.485 0.01 5.485 -1 7 C2.96 7 6.92 7 11 7 C11 7.33 11 7.66 11 8 C6.38 8 1.76 8 -3 8 C-1.125 1.125 -1.125 1.125 0 0 Z " fill="#D39D72" transform="translate(102,141)"/>
<path d="M0 0 C2 1.75 2 1.75 4 4 C4 5.32 4 6.64 4 8 C2.68 8 1.36 8 0 8 C0 5.36 0 2.72 0 0 Z " fill="#CF996F" transform="translate(180,141)"/>
<path d="M0 0 C0.99 0.33 1.98 0.66 3 1 C3 1.66 3 2.32 3 3 C6.3 3 9.6 3 13 3 C9 5 9 5 5 5 C4.67 5.66 4.34 6.32 4 7 C3.34 5.35 2.68 3.7 2 2 C1.34 2 0.68 2 0 2 C0 1.34 0 0.68 0 0 Z " fill="#CF9C6F" transform="translate(273,121)"/>
<path d="M0 0 C2.61500768 2.36595933 4.38999603 4.86049226 6 8 C5.67 8.66 5.34 9.32 5 10 C3.0625 9.5 3.0625 9.5 1 8 C0.31209578 5.30341548 0.18053536 2.7982981 0 0 Z " fill="#BD8065" transform="translate(209,271)"/>
<path d="M0 0 C0.97533063 2.63339271 1.019574 3.92348347 0.3125 6.6875 C-1 9 -1 9 -3.125 9.8125 C-3.74375 9.874375 -4.3625 9.93625 -5 10 C-3.66511872 6.40608886 -2.03977277 3.24509304 0 0 Z " fill="#B57A61" transform="translate(241,272)"/>
<path d="M0 0 C2.64 0.33 5.28 0.66 8 1 C8 1.66 8 2.32 8 3 C7.01 3.33 6.02 3.66 5 4 C4.34 4.66 3.68 5.32 3 6 C2.01 4.02 1.02 2.04 0 0 Z " fill="#D9A075" transform="translate(294,154)"/>
<path d="M0 0 C3.96 0 7.92 0 12 0 C11.67 0.99 11.34 1.98 11 3 C10.67 2.34 10.34 1.68 10 1 C8.741875 1.144375 7.48375 1.28875 6.1875 1.4375 C5.12595703 1.55931641 5.12595703 1.55931641 4.04296875 1.68359375 C1.80603607 1.97170735 1.80603607 1.97170735 -1 3 C-0.67 2.01 -0.34 1.02 0 0 Z " fill="#33231B" transform="translate(237,260)"/>
<path d="M0 0 C0.33 0 0.66 0 1 0 C1 2.31 1 4.62 1 7 C-0.65 7 -2.3 7 -4 7 C-2.92598892 4.08482708 -2.22189824 2.22189824 0 0 Z " fill="#ECAB7F" transform="translate(121,179)"/>
<path d="M0 0 C1.65 0 3.3 0 5 0 C5 2.31 5 4.62 5 7 C2.47411298 4.63707344 1.11179163 3.33537489 0 0 Z " fill="#D1A471" transform="translate(237,62)"/>
<path d="M0 0 C4.29 0.66 8.58 1.32 13 2 C13 2.33 13 2.66 13 3 C9.7 3 6.4 3 3 3 C2.67 3.66 2.34 4.32 2 5 C1.34 3.35 0.68 1.7 0 0 Z " fill="#CA886C" transform="translate(137,277)"/>
<path d="M0 0 C0.66 1.32 1.32 2.64 2 4 C0.35 5.32 -1.3 6.64 -3 8 C-3 4.42424104 -1.91159393 2.94704065 0 0 Z " fill="#AE845E" transform="translate(115,120)"/>
<path d="M0 0 C0.99 0 1.98 0 3 0 C3.33 1.32 3.66 2.64 4 4 C2.68 4 1.36 4 0 4 C-0.33 4.99 -0.66 5.98 -1 7 C-1.66 7 -2.32 7 -3 7 C-1.125 2.25 -1.125 2.25 0 0 Z " fill="#AD845E" transform="translate(160,111)"/>
<path d="M0 0 C1.231394 2.46278801 1.07159196 4.2795055 1 7 C-0.65 7.33 -2.3 7.66 -4 8 C-2.87548273 5.0280615 -1.77706209 2.66559313 0 0 Z " fill="#B1885F" transform="translate(135,88)"/>
<path d="M0 0 C0.66 0 1.32 0 2 0 C2 0.99 2 1.98 2 3 C2.99 3 3.98 3 5 3 C5 3.66 5 4.32 5 5 C3.02 5 1.04 5 -1 5 C-0.67 3.35 -0.34 1.7 0 0 Z " fill="#CA896C" transform="translate(115,276)"/>
<path d="M0 0 C0.99 0.33 1.98 0.66 3 1 C3 2.65 3 4.3 3 6 C2.01 6 1.02 6 0 6 C0 4.02 0 2.04 0 0 Z " fill="#F1A381" transform="translate(182,271)"/>
</svg>
